G75*
%MOIN*%
%OFA0B0*%
%FSLAX25Y25*%
%IPPOS*%
%LPD*%
%AMOC8*
5,1,8,0,0,1.08239X$1,22.5*
%
%ADD10C,0.08000*%
%ADD11C,0.07124*%
%ADD12R,0.08000X0.08000*%
%ADD13C,0.06200*%
%ADD14C,0.06800*%
%ADD15C,0.00800*%
%ADD16C,0.04165*%
D10*
X0095800Y0121300D03*
X0106800Y0121300D03*
X0120800Y0121300D03*
X0131800Y0121300D03*
X0142520Y0156800D03*
X0178020Y0156800D03*
X0217520Y0156800D03*
X0100520Y0156800D03*
D11*
X0102738Y0106300D02*
X0109862Y0106300D01*
X0109862Y0096300D02*
X0102738Y0096300D01*
X0102738Y0086300D02*
X0109862Y0086300D01*
X0109862Y0076300D02*
X0102738Y0076300D01*
X0102738Y0066300D02*
X0109862Y0066300D01*
X0122738Y0061300D02*
X0129862Y0061300D01*
X0129862Y0051300D02*
X0122738Y0051300D01*
X0122738Y0041300D02*
X0129862Y0041300D01*
X0109862Y0036300D02*
X0102738Y0036300D01*
X0102738Y0046300D02*
X0109862Y0046300D01*
X0109862Y0056300D02*
X0102738Y0056300D01*
X0122738Y0071300D02*
X0129862Y0071300D01*
X0129862Y0081300D02*
X0122738Y0081300D01*
X0122738Y0091300D02*
X0129862Y0091300D01*
X0129862Y0101300D02*
X0122738Y0101300D01*
D12*
X0114300Y0156800D03*
X0156300Y0156800D03*
X0191800Y0156800D03*
X0231300Y0156800D03*
D13*
X0078300Y0159300D03*
X0078300Y0149300D03*
X0068300Y0149300D03*
X0078300Y0139300D03*
X0078300Y0129300D03*
X0068300Y0129300D03*
X0068300Y0119300D03*
X0078300Y0119300D03*
X0078300Y0109300D03*
X0068300Y0109300D03*
X0078300Y0099300D03*
X0078300Y0089300D03*
X0078300Y0079300D03*
X0078300Y0069300D03*
X0078300Y0059300D03*
X0078300Y0049300D03*
X0078300Y0039300D03*
X0078300Y0029300D03*
X0068300Y0029300D03*
X0058300Y0029300D03*
X0048300Y0029300D03*
X0038300Y0029300D03*
X0028300Y0029300D03*
X0018300Y0029300D03*
X0018300Y0039300D03*
X0018300Y0049300D03*
X0018300Y0059300D03*
X0018300Y0069300D03*
X0018300Y0079300D03*
X0018300Y0089300D03*
X0018300Y0099300D03*
X0018300Y0109300D03*
X0018300Y0119300D03*
X0018300Y0129300D03*
X0018300Y0139300D03*
X0018300Y0149300D03*
X0018300Y0159300D03*
D14*
X0161300Y0091300D03*
X0186300Y0091300D03*
X0211300Y0091300D03*
X0236300Y0091300D03*
X0236300Y0051300D03*
X0246300Y0051300D03*
X0221300Y0051300D03*
X0211300Y0051300D03*
X0196300Y0051300D03*
X0186300Y0051300D03*
X0171300Y0051300D03*
X0161300Y0051300D03*
X0171300Y0011300D03*
X0196300Y0011300D03*
X0221300Y0011300D03*
X0246300Y0011300D03*
D15*
X0008200Y0008200D02*
X0008200Y0169400D01*
X0259400Y0169400D01*
X0259400Y0008200D01*
X0249981Y0008200D01*
X0250405Y0008784D01*
X0250748Y0009457D01*
X0250982Y0010176D01*
X0251096Y0010900D01*
X0246700Y0010900D01*
X0246700Y0011700D01*
X0251096Y0011700D01*
X0250982Y0012424D01*
X0250748Y0013143D01*
X0250405Y0013816D01*
X0249961Y0014427D01*
X0249427Y0014961D01*
X0248816Y0015405D01*
X0248143Y0015748D01*
X0247424Y0015982D01*
X0246700Y0016096D01*
X0246700Y0011700D01*
X0245900Y0011700D01*
X0245900Y0016096D01*
X0245176Y0015982D01*
X0244457Y0015748D01*
X0243784Y0015405D01*
X0243173Y0014961D01*
X0242639Y0014427D01*
X0242195Y0013816D01*
X0241852Y0013143D01*
X0241618Y0012424D01*
X0241504Y0011700D01*
X0245900Y0011700D01*
X0245900Y0010900D01*
X0241504Y0010900D01*
X0241618Y0010176D01*
X0241852Y0009457D01*
X0242195Y0008784D01*
X0242619Y0008200D01*
X0224981Y0008200D01*
X0225405Y0008784D01*
X0225748Y0009457D01*
X0225982Y0010176D01*
X0226096Y0010900D01*
X0221700Y0010900D01*
X0221700Y0011700D01*
X0220900Y0011700D01*
X0220900Y0016096D01*
X0220176Y0015982D01*
X0219457Y0015748D01*
X0218784Y0015405D01*
X0218173Y0014961D01*
X0217639Y0014427D01*
X0217195Y0013816D01*
X0216852Y0013143D01*
X0216618Y0012424D01*
X0216504Y0011700D01*
X0220900Y0011700D01*
X0220900Y0010900D01*
X0216504Y0010900D01*
X0216618Y0010176D01*
X0216852Y0009457D01*
X0217195Y0008784D01*
X0217619Y0008200D01*
X0199981Y0008200D01*
X0200405Y0008784D01*
X0200748Y0009457D01*
X0200982Y0010176D01*
X0201096Y0010900D01*
X0196700Y0010900D01*
X0196700Y0011700D01*
X0195900Y0011700D01*
X0195900Y0016096D01*
X0195176Y0015982D01*
X0194457Y0015748D01*
X0193784Y0015405D01*
X0193173Y0014961D01*
X0192639Y0014427D01*
X0192195Y0013816D01*
X0191852Y0013143D01*
X0191618Y0012424D01*
X0191504Y0011700D01*
X0195900Y0011700D01*
X0195900Y0010900D01*
X0191504Y0010900D01*
X0191618Y0010176D01*
X0191852Y0009457D01*
X0192195Y0008784D01*
X0192619Y0008200D01*
X0174981Y0008200D01*
X0175405Y0008784D01*
X0175748Y0009457D01*
X0175982Y0010176D01*
X0176096Y0010900D01*
X0171700Y0010900D01*
X0171700Y0011700D01*
X0170900Y0011700D01*
X0170900Y0016096D01*
X0170176Y0015982D01*
X0169457Y0015748D01*
X0168784Y0015405D01*
X0168173Y0014961D01*
X0167639Y0014427D01*
X0167195Y0013816D01*
X0166852Y0013143D01*
X0166618Y0012424D01*
X0166504Y0011700D01*
X0170900Y0011700D01*
X0170900Y0010900D01*
X0166504Y0010900D01*
X0166618Y0010176D01*
X0166852Y0009457D01*
X0167195Y0008784D01*
X0167619Y0008200D01*
X0008200Y0008200D01*
X0008200Y0008487D02*
X0167411Y0008487D01*
X0166939Y0009285D02*
X0008200Y0009285D01*
X0008200Y0010084D02*
X0166648Y0010084D01*
X0166506Y0010882D02*
X0008200Y0010882D01*
X0008200Y0011681D02*
X0170900Y0011681D01*
X0170900Y0012479D02*
X0171700Y0012479D01*
X0171700Y0011700D02*
X0171700Y0016096D01*
X0172424Y0015982D01*
X0173143Y0015748D01*
X0173816Y0015405D01*
X0174427Y0014961D01*
X0174961Y0014427D01*
X0175405Y0013816D01*
X0175748Y0013143D01*
X0175982Y0012424D01*
X0176096Y0011700D01*
X0171700Y0011700D01*
X0171700Y0011681D02*
X0195900Y0011681D01*
X0195900Y0012479D02*
X0196700Y0012479D01*
X0196700Y0011700D02*
X0196700Y0016096D01*
X0197424Y0015982D01*
X0198143Y0015748D01*
X0198816Y0015405D01*
X0199427Y0014961D01*
X0199961Y0014427D01*
X0200405Y0013816D01*
X0200748Y0013143D01*
X0200982Y0012424D01*
X0201096Y0011700D01*
X0196700Y0011700D01*
X0196700Y0011681D02*
X0220900Y0011681D01*
X0220900Y0012479D02*
X0221700Y0012479D01*
X0221700Y0011700D02*
X0221700Y0016096D01*
X0222424Y0015982D01*
X0223143Y0015748D01*
X0223816Y0015405D01*
X0224427Y0014961D01*
X0224961Y0014427D01*
X0225405Y0013816D01*
X0225748Y0013143D01*
X0225982Y0012424D01*
X0226096Y0011700D01*
X0221700Y0011700D01*
X0221700Y0011681D02*
X0245900Y0011681D01*
X0245900Y0012479D02*
X0246700Y0012479D01*
X0246700Y0011681D02*
X0259400Y0011681D01*
X0259400Y0012479D02*
X0250964Y0012479D01*
X0250679Y0013278D02*
X0259400Y0013278D01*
X0259400Y0014076D02*
X0250216Y0014076D01*
X0249514Y0014875D02*
X0259400Y0014875D01*
X0259400Y0015673D02*
X0248290Y0015673D01*
X0246700Y0015673D02*
X0245900Y0015673D01*
X0245900Y0014875D02*
X0246700Y0014875D01*
X0246700Y0014076D02*
X0245900Y0014076D01*
X0245900Y0013278D02*
X0246700Y0013278D01*
X0244310Y0015673D02*
X0223290Y0015673D01*
X0224514Y0014875D02*
X0243086Y0014875D01*
X0242384Y0014076D02*
X0225216Y0014076D01*
X0225679Y0013278D02*
X0241921Y0013278D01*
X0241636Y0012479D02*
X0225964Y0012479D01*
X0226094Y0010882D02*
X0241506Y0010882D01*
X0241648Y0010084D02*
X0225952Y0010084D01*
X0225661Y0009285D02*
X0241939Y0009285D01*
X0242411Y0008487D02*
X0225189Y0008487D01*
X0221700Y0013278D02*
X0220900Y0013278D01*
X0220900Y0014076D02*
X0221700Y0014076D01*
X0221700Y0014875D02*
X0220900Y0014875D01*
X0220900Y0015673D02*
X0221700Y0015673D01*
X0219310Y0015673D02*
X0198290Y0015673D01*
X0199514Y0014875D02*
X0218086Y0014875D01*
X0217384Y0014076D02*
X0200216Y0014076D01*
X0200679Y0013278D02*
X0216921Y0013278D01*
X0216636Y0012479D02*
X0200964Y0012479D01*
X0201094Y0010882D02*
X0216506Y0010882D01*
X0216648Y0010084D02*
X0200952Y0010084D01*
X0200661Y0009285D02*
X0216939Y0009285D01*
X0217411Y0008487D02*
X0200189Y0008487D01*
X0196700Y0013278D02*
X0195900Y0013278D01*
X0195900Y0014076D02*
X0196700Y0014076D01*
X0196700Y0014875D02*
X0195900Y0014875D01*
X0195900Y0015673D02*
X0196700Y0015673D01*
X0194310Y0015673D02*
X0173290Y0015673D01*
X0174514Y0014875D02*
X0193086Y0014875D01*
X0192384Y0014076D02*
X0175216Y0014076D01*
X0175679Y0013278D02*
X0191921Y0013278D01*
X0191636Y0012479D02*
X0175964Y0012479D01*
X0176094Y0010882D02*
X0191506Y0010882D01*
X0191648Y0010084D02*
X0175952Y0010084D01*
X0175661Y0009285D02*
X0191939Y0009285D01*
X0192411Y0008487D02*
X0175189Y0008487D01*
X0171700Y0013278D02*
X0170900Y0013278D01*
X0170900Y0014076D02*
X0171700Y0014076D01*
X0171700Y0014875D02*
X0170900Y0014875D01*
X0170900Y0015673D02*
X0171700Y0015673D01*
X0169310Y0015673D02*
X0008200Y0015673D01*
X0008200Y0014875D02*
X0168086Y0014875D01*
X0167384Y0014076D02*
X0008200Y0014076D01*
X0008200Y0013278D02*
X0166921Y0013278D01*
X0166636Y0012479D02*
X0008200Y0012479D01*
X0008200Y0016472D02*
X0259400Y0016472D01*
X0259400Y0017270D02*
X0008200Y0017270D01*
X0008200Y0018069D02*
X0259400Y0018069D01*
X0259400Y0018867D02*
X0008200Y0018867D01*
X0008200Y0019666D02*
X0259400Y0019666D01*
X0259400Y0020464D02*
X0008200Y0020464D01*
X0008200Y0021263D02*
X0259400Y0021263D01*
X0259400Y0022061D02*
X0008200Y0022061D01*
X0008200Y0022860D02*
X0259400Y0022860D01*
X0259400Y0023658D02*
X0008200Y0023658D01*
X0008200Y0024457D02*
X0259400Y0024457D01*
X0259400Y0025255D02*
X0080817Y0025255D01*
X0080962Y0025316D02*
X0082284Y0026638D01*
X0083000Y0028365D01*
X0083000Y0030235D01*
X0082284Y0031962D01*
X0080962Y0033284D01*
X0079235Y0034000D01*
X0077365Y0034000D01*
X0075638Y0033284D01*
X0074316Y0031962D01*
X0073600Y0030235D01*
X0073600Y0028365D01*
X0074316Y0026638D01*
X0075638Y0025316D01*
X0077365Y0024600D01*
X0079235Y0024600D01*
X0080962Y0025316D01*
X0081701Y0026054D02*
X0259400Y0026054D01*
X0259400Y0026852D02*
X0082373Y0026852D01*
X0082704Y0027651D02*
X0259400Y0027651D01*
X0259400Y0028449D02*
X0083000Y0028449D01*
X0083000Y0029248D02*
X0259400Y0029248D01*
X0259400Y0030046D02*
X0083000Y0030046D01*
X0082747Y0030845D02*
X0259400Y0030845D01*
X0259400Y0031643D02*
X0112110Y0031643D01*
X0112786Y0031924D02*
X0114238Y0033376D01*
X0115024Y0035273D01*
X0115024Y0037327D01*
X0114238Y0039224D01*
X0112786Y0040676D01*
X0111281Y0041300D01*
X0112786Y0041924D01*
X0114238Y0043376D01*
X0114621Y0044300D01*
X0118437Y0044300D01*
X0118361Y0044224D01*
X0117576Y0042327D01*
X0117576Y0040273D01*
X0118361Y0038376D01*
X0119814Y0036924D01*
X0121711Y0036138D01*
X0130889Y0036138D01*
X0132786Y0036924D01*
X0134238Y0038376D01*
X0134621Y0039300D01*
X0237128Y0039300D01*
X0244473Y0046645D01*
X0245305Y0046300D01*
X0247295Y0046300D01*
X0249132Y0047061D01*
X0250539Y0048468D01*
X0251300Y0050305D01*
X0251300Y0052295D01*
X0250539Y0054132D01*
X0249132Y0055539D01*
X0247295Y0056300D01*
X0245305Y0056300D01*
X0243468Y0055539D01*
X0242061Y0054132D01*
X0241300Y0052295D01*
X0240539Y0054132D01*
X0239132Y0055539D01*
X0237295Y0056300D01*
X0235305Y0056300D01*
X0233468Y0055539D01*
X0232061Y0054132D01*
X0231300Y0052295D01*
X0231300Y0050305D01*
X0232061Y0048468D01*
X0233468Y0047061D01*
X0235305Y0046300D01*
X0237295Y0046300D01*
X0239132Y0047061D01*
X0240539Y0048468D01*
X0241300Y0050305D01*
X0241300Y0052295D01*
X0241300Y0050305D01*
X0241645Y0049473D01*
X0235472Y0043300D01*
X0134621Y0043300D01*
X0134238Y0044224D01*
X0134163Y0044300D01*
X0207128Y0044300D01*
X0209473Y0046645D01*
X0210305Y0046300D01*
X0212295Y0046300D01*
X0214132Y0047061D01*
X0215539Y0048468D01*
X0216300Y0050305D01*
X0216300Y0052295D01*
X0215539Y0054132D01*
X0214132Y0055539D01*
X0212295Y0056300D01*
X0210305Y0056300D01*
X0208468Y0055539D01*
X0207061Y0054132D01*
X0206300Y0052295D01*
X0206300Y0050305D01*
X0206645Y0049473D01*
X0205472Y0048300D01*
X0200371Y0048300D01*
X0200539Y0048468D01*
X0201300Y0050305D01*
X0201300Y0052295D01*
X0200539Y0054132D01*
X0199132Y0055539D01*
X0197295Y0056300D01*
X0195305Y0056300D01*
X0193468Y0055539D01*
X0192061Y0054132D01*
X0191300Y0052295D01*
X0190539Y0054132D01*
X0189132Y0055539D01*
X0188300Y0055884D01*
X0188300Y0056102D01*
X0188424Y0056720D01*
X0188300Y0056906D01*
X0188300Y0057128D01*
X0187854Y0057574D01*
X0178300Y0071906D01*
X0178300Y0072128D01*
X0177854Y0072574D01*
X0177505Y0073099D01*
X0177286Y0073142D01*
X0177128Y0073300D01*
X0176498Y0073300D01*
X0175880Y0073424D01*
X0175694Y0073300D01*
X0141735Y0073300D01*
X0134846Y0077910D01*
X0134399Y0078357D01*
X0134219Y0078357D01*
X0134238Y0078376D01*
X0135024Y0080273D01*
X0135024Y0082327D01*
X0134238Y0084224D01*
X0132786Y0085676D01*
X0131281Y0086300D01*
X0132786Y0086924D01*
X0134238Y0088376D01*
X0134621Y0089300D01*
X0156716Y0089300D01*
X0157061Y0088468D01*
X0158468Y0087061D01*
X0160305Y0086300D01*
X0162295Y0086300D01*
X0164132Y0087061D01*
X0165539Y0088468D01*
X0165884Y0089300D01*
X0181716Y0089300D01*
X0182061Y0088468D01*
X0183468Y0087061D01*
X0185305Y0086300D01*
X0187295Y0086300D01*
X0189132Y0087061D01*
X0190539Y0088468D01*
X0190884Y0089300D01*
X0206716Y0089300D01*
X0207061Y0088468D01*
X0208468Y0087061D01*
X0210305Y0086300D01*
X0212295Y0086300D01*
X0214132Y0087061D01*
X0215539Y0088468D01*
X0215884Y0089300D01*
X0231716Y0089300D01*
X0232061Y0088468D01*
X0233468Y0087061D01*
X0235305Y0086300D01*
X0237295Y0086300D01*
X0239132Y0087061D01*
X0240539Y0088468D01*
X0241300Y0090305D01*
X0241300Y0092295D01*
X0240539Y0094132D01*
X0239132Y0095539D01*
X0237295Y0096300D01*
X0235305Y0096300D01*
X0233468Y0095539D01*
X0232061Y0094132D01*
X0231716Y0093300D01*
X0215884Y0093300D01*
X0215539Y0094132D01*
X0214132Y0095539D01*
X0212295Y0096300D01*
X0210305Y0096300D01*
X0208468Y0095539D01*
X0207061Y0094132D01*
X0206716Y0093300D01*
X0190884Y0093300D01*
X0190539Y0094132D01*
X0189132Y0095539D01*
X0187295Y0096300D01*
X0185305Y0096300D01*
X0183468Y0095539D01*
X0182061Y0094132D01*
X0181716Y0093300D01*
X0165884Y0093300D01*
X0165539Y0094132D01*
X0164132Y0095539D01*
X0162295Y0096300D01*
X0160305Y0096300D01*
X0159473Y0095955D01*
X0158300Y0097128D01*
X0158300Y0151200D01*
X0160963Y0151200D01*
X0161900Y0152137D01*
X0161900Y0161463D01*
X0160963Y0162400D01*
X0151637Y0162400D01*
X0150700Y0161463D01*
X0150700Y0152137D01*
X0151637Y0151200D01*
X0154300Y0151200D01*
X0154300Y0123300D01*
X0137033Y0123300D01*
X0136547Y0124472D01*
X0134972Y0126047D01*
X0132914Y0126900D01*
X0130686Y0126900D01*
X0128628Y0126047D01*
X0127053Y0124472D01*
X0126200Y0122414D01*
X0126200Y0120186D01*
X0127053Y0118128D01*
X0128628Y0116553D01*
X0130686Y0115700D01*
X0132914Y0115700D01*
X0134972Y0116553D01*
X0136547Y0118128D01*
X0137033Y0119300D01*
X0154300Y0119300D01*
X0154300Y0103508D01*
X0153386Y0104422D01*
X0152033Y0104983D01*
X0150567Y0104983D01*
X0149214Y0104422D01*
X0148178Y0103386D01*
X0148142Y0103300D01*
X0134621Y0103300D01*
X0134238Y0104224D01*
X0132786Y0105676D01*
X0130889Y0106462D01*
X0121711Y0106462D01*
X0119814Y0105676D01*
X0118361Y0104224D01*
X0117576Y0102327D01*
X0117576Y0100273D01*
X0118361Y0098376D01*
X0119814Y0096924D01*
X0121319Y0096300D01*
X0119814Y0095676D01*
X0118361Y0094224D01*
X0117576Y0092327D01*
X0117576Y0090273D01*
X0117962Y0089340D01*
X0113695Y0092832D01*
X0114238Y0093376D01*
X0115024Y0095273D01*
X0115024Y0097327D01*
X0114238Y0099224D01*
X0112786Y0100676D01*
X0111281Y0101300D01*
X0112786Y0101924D01*
X0114238Y0103376D01*
X0115024Y0105273D01*
X0115024Y0107327D01*
X0114238Y0109224D01*
X0112786Y0110676D01*
X0110889Y0111462D01*
X0101711Y0111462D01*
X0099814Y0110676D01*
X0098361Y0109224D01*
X0097800Y0107869D01*
X0097800Y0116067D01*
X0098972Y0116553D01*
X0100547Y0118128D01*
X0101400Y0120186D01*
X0101400Y0122414D01*
X0100914Y0123586D01*
X0116300Y0138972D01*
X0116300Y0151200D01*
X0118963Y0151200D01*
X0119900Y0152137D01*
X0119900Y0161463D01*
X0118963Y0162400D01*
X0109637Y0162400D01*
X0108700Y0161463D01*
X0108700Y0152137D01*
X0109637Y0151200D01*
X0112300Y0151200D01*
X0112300Y0140628D01*
X0098086Y0126414D01*
X0096914Y0126900D01*
X0094686Y0126900D01*
X0092628Y0126047D01*
X0091053Y0124472D01*
X0090200Y0122414D01*
X0090200Y0120186D01*
X0091053Y0118128D01*
X0092628Y0116553D01*
X0093800Y0116067D01*
X0093800Y0076040D01*
X0093742Y0075973D01*
X0093800Y0075223D01*
X0093800Y0074472D01*
X0093863Y0074409D01*
X0093869Y0074321D01*
X0094440Y0073831D01*
X0094972Y0073300D01*
X0095060Y0073300D01*
X0099032Y0069895D01*
X0098361Y0069224D01*
X0097576Y0067327D01*
X0097576Y0065273D01*
X0098361Y0063376D01*
X0099814Y0061924D01*
X0101319Y0061300D01*
X0099814Y0060676D01*
X0098361Y0059224D01*
X0097576Y0057327D01*
X0097576Y0055273D01*
X0098361Y0053376D01*
X0099814Y0051924D01*
X0101319Y0051300D01*
X0099814Y0050676D01*
X0098361Y0049224D01*
X0097576Y0047327D01*
X0097576Y0045273D01*
X0098361Y0043376D01*
X0099814Y0041924D01*
X0101319Y0041300D01*
X0099814Y0040676D01*
X0098361Y0039224D01*
X0097576Y0037327D01*
X0097576Y0035273D01*
X0098361Y0033376D01*
X0099814Y0031924D01*
X0101711Y0031138D01*
X0110889Y0031138D01*
X0112786Y0031924D01*
X0113305Y0032442D02*
X0259400Y0032442D01*
X0259400Y0033240D02*
X0114103Y0033240D01*
X0114513Y0034039D02*
X0259400Y0034039D01*
X0259400Y0034837D02*
X0114844Y0034837D01*
X0115024Y0035636D02*
X0259400Y0035636D01*
X0259400Y0036434D02*
X0131605Y0036434D01*
X0133096Y0037233D02*
X0259400Y0037233D01*
X0259400Y0038032D02*
X0133894Y0038032D01*
X0134427Y0038830D02*
X0259400Y0038830D01*
X0259400Y0039629D02*
X0237457Y0039629D01*
X0238255Y0040427D02*
X0259400Y0040427D01*
X0259400Y0041226D02*
X0239054Y0041226D01*
X0239852Y0042024D02*
X0259400Y0042024D01*
X0259400Y0042823D02*
X0240651Y0042823D01*
X0241450Y0043621D02*
X0259400Y0043621D01*
X0259400Y0044420D02*
X0242248Y0044420D01*
X0243047Y0045218D02*
X0259400Y0045218D01*
X0259400Y0046017D02*
X0243845Y0046017D01*
X0239785Y0047614D02*
X0239685Y0047614D01*
X0238987Y0046815D02*
X0238538Y0046815D01*
X0238188Y0046017D02*
X0208845Y0046017D01*
X0208047Y0045218D02*
X0237390Y0045218D01*
X0236591Y0044420D02*
X0207248Y0044420D01*
X0206300Y0046300D02*
X0211300Y0051300D01*
X0206676Y0053203D02*
X0200924Y0053203D01*
X0201254Y0052405D02*
X0206346Y0052405D01*
X0206300Y0051606D02*
X0201300Y0051606D01*
X0201300Y0050808D02*
X0206300Y0050808D01*
X0206423Y0050009D02*
X0201177Y0050009D01*
X0200847Y0049211D02*
X0206382Y0049211D01*
X0205584Y0048412D02*
X0200483Y0048412D01*
X0206300Y0046300D02*
X0106300Y0046300D01*
X0111281Y0051300D02*
X0112786Y0051924D01*
X0114238Y0053376D01*
X0115024Y0055273D01*
X0115024Y0057327D01*
X0114238Y0059224D01*
X0112786Y0060676D01*
X0111281Y0061300D01*
X0112786Y0061924D01*
X0114238Y0063376D01*
X0115024Y0065273D01*
X0115024Y0067327D01*
X0114238Y0069224D01*
X0112786Y0070676D01*
X0111281Y0071300D01*
X0112786Y0071924D01*
X0114238Y0073376D01*
X0115024Y0075273D01*
X0115024Y0077327D01*
X0114238Y0079224D01*
X0112786Y0080676D01*
X0111281Y0081300D01*
X0112786Y0081924D01*
X0114238Y0083376D01*
X0115024Y0085273D01*
X0115024Y0086576D01*
X0115313Y0086339D01*
X0115313Y0080120D01*
X0115207Y0079460D01*
X0115313Y0079313D01*
X0115313Y0079131D01*
X0115786Y0078659D01*
X0117916Y0075710D01*
X0117916Y0075528D01*
X0118389Y0075056D01*
X0118780Y0074514D01*
X0118923Y0074491D01*
X0118494Y0073901D01*
X0118139Y0073205D01*
X0117898Y0072462D01*
X0117777Y0071700D01*
X0125900Y0071700D01*
X0125900Y0070900D01*
X0117777Y0070900D01*
X0117898Y0070138D01*
X0118139Y0069395D01*
X0118494Y0068699D01*
X0118953Y0068067D01*
X0119505Y0067515D01*
X0120137Y0067056D01*
X0120833Y0066701D01*
X0121576Y0066460D01*
X0121670Y0066445D01*
X0119814Y0065676D01*
X0118361Y0064224D01*
X0117576Y0062327D01*
X0117576Y0060273D01*
X0118361Y0058376D01*
X0119814Y0056924D01*
X0121319Y0056300D01*
X0119814Y0055676D01*
X0118361Y0054224D01*
X0117576Y0052327D01*
X0117576Y0050273D01*
X0118361Y0048376D01*
X0118437Y0048300D01*
X0114621Y0048300D01*
X0114238Y0049224D01*
X0112786Y0050676D01*
X0111281Y0051300D01*
X0112020Y0051606D02*
X0117576Y0051606D01*
X0117576Y0050808D02*
X0112469Y0050808D01*
X0113453Y0050009D02*
X0117685Y0050009D01*
X0118016Y0049211D02*
X0114244Y0049211D01*
X0114575Y0048412D02*
X0118346Y0048412D01*
X0117608Y0052405D02*
X0113267Y0052405D01*
X0114066Y0053203D02*
X0117939Y0053203D01*
X0118269Y0054002D02*
X0114498Y0054002D01*
X0114829Y0054800D02*
X0118938Y0054800D01*
X0119736Y0055599D02*
X0115024Y0055599D01*
X0115024Y0056397D02*
X0121085Y0056397D01*
X0119542Y0057196D02*
X0115024Y0057196D01*
X0114748Y0057994D02*
X0118743Y0057994D01*
X0118189Y0058793D02*
X0114417Y0058793D01*
X0113871Y0059591D02*
X0117858Y0059591D01*
X0117576Y0060390D02*
X0113073Y0060390D01*
X0112850Y0061987D02*
X0117576Y0061987D01*
X0117576Y0061188D02*
X0111550Y0061188D01*
X0113648Y0062785D02*
X0117766Y0062785D01*
X0118096Y0063584D02*
X0114325Y0063584D01*
X0114655Y0064382D02*
X0118520Y0064382D01*
X0119318Y0065181D02*
X0114986Y0065181D01*
X0115024Y0065979D02*
X0120545Y0065979D01*
X0120683Y0066778D02*
X0115024Y0066778D01*
X0114921Y0067576D02*
X0119444Y0067576D01*
X0118729Y0068375D02*
X0114590Y0068375D01*
X0114259Y0069173D02*
X0118252Y0069173D01*
X0117952Y0069972D02*
X0113491Y0069972D01*
X0112559Y0070770D02*
X0117798Y0070770D01*
X0117883Y0072368D02*
X0113230Y0072368D01*
X0114029Y0073166D02*
X0118127Y0073166D01*
X0118540Y0073965D02*
X0114482Y0073965D01*
X0114813Y0074763D02*
X0118600Y0074763D01*
X0117916Y0075562D02*
X0115024Y0075562D01*
X0115024Y0076360D02*
X0117446Y0076360D01*
X0116870Y0077159D02*
X0115024Y0077159D01*
X0114763Y0077957D02*
X0116293Y0077957D01*
X0115689Y0078756D02*
X0114433Y0078756D01*
X0113909Y0079554D02*
X0115222Y0079554D01*
X0115313Y0080353D02*
X0113110Y0080353D01*
X0112812Y0081950D02*
X0115313Y0081950D01*
X0115313Y0082748D02*
X0113611Y0082748D01*
X0114309Y0083547D02*
X0115313Y0083547D01*
X0115313Y0084345D02*
X0114640Y0084345D01*
X0114971Y0085144D02*
X0115313Y0085144D01*
X0115313Y0085942D02*
X0115024Y0085942D01*
X0117313Y0087287D02*
X0117313Y0079959D01*
X0119916Y0076357D01*
X0133570Y0076357D01*
X0141127Y0071300D01*
X0176300Y0071300D01*
X0186300Y0056300D01*
X0186300Y0051300D01*
X0190847Y0049211D02*
X0191753Y0049211D01*
X0192061Y0048468D02*
X0192229Y0048300D01*
X0190371Y0048300D01*
X0190539Y0048468D01*
X0191300Y0050305D01*
X0191300Y0052295D01*
X0191300Y0050305D01*
X0192061Y0048468D01*
X0192117Y0048412D02*
X0190483Y0048412D01*
X0191177Y0050009D02*
X0191423Y0050009D01*
X0191300Y0050808D02*
X0191300Y0050808D01*
X0191300Y0051606D02*
X0191300Y0051606D01*
X0191254Y0052405D02*
X0191346Y0052405D01*
X0191676Y0053203D02*
X0190924Y0053203D01*
X0190593Y0054002D02*
X0192007Y0054002D01*
X0192729Y0054800D02*
X0189871Y0054800D01*
X0188987Y0055599D02*
X0193613Y0055599D01*
X0188359Y0056397D02*
X0259400Y0056397D01*
X0259400Y0055599D02*
X0248987Y0055599D01*
X0249871Y0054800D02*
X0259400Y0054800D01*
X0259400Y0054002D02*
X0250593Y0054002D01*
X0250924Y0053203D02*
X0259400Y0053203D01*
X0259400Y0052405D02*
X0251254Y0052405D01*
X0251300Y0051606D02*
X0259400Y0051606D01*
X0259400Y0050808D02*
X0251300Y0050808D01*
X0251177Y0050009D02*
X0259400Y0050009D01*
X0259400Y0049211D02*
X0250847Y0049211D01*
X0250483Y0048412D02*
X0259400Y0048412D01*
X0259400Y0047614D02*
X0249685Y0047614D01*
X0248538Y0046815D02*
X0259400Y0046815D01*
X0246300Y0051300D02*
X0236300Y0041300D01*
X0126300Y0041300D01*
X0120995Y0036434D02*
X0115024Y0036434D01*
X0115024Y0037233D02*
X0119504Y0037233D01*
X0118706Y0038032D02*
X0114733Y0038032D01*
X0114402Y0038830D02*
X0118173Y0038830D01*
X0117843Y0039629D02*
X0113834Y0039629D01*
X0113036Y0040427D02*
X0117576Y0040427D01*
X0117576Y0041226D02*
X0111460Y0041226D01*
X0112887Y0042024D02*
X0117576Y0042024D01*
X0117781Y0042823D02*
X0113685Y0042823D01*
X0114340Y0043621D02*
X0118112Y0043621D01*
X0134488Y0043621D02*
X0235793Y0043621D01*
X0234062Y0046815D02*
X0223538Y0046815D01*
X0224132Y0047061D02*
X0225539Y0048468D01*
X0226300Y0050305D01*
X0226300Y0052295D01*
X0225539Y0054132D01*
X0224132Y0055539D01*
X0222295Y0056300D01*
X0220305Y0056300D01*
X0218468Y0055539D01*
X0217061Y0054132D01*
X0216300Y0052295D01*
X0216300Y0050305D01*
X0217061Y0048468D01*
X0218468Y0047061D01*
X0220305Y0046300D01*
X0222295Y0046300D01*
X0224132Y0047061D01*
X0224685Y0047614D02*
X0232915Y0047614D01*
X0232117Y0048412D02*
X0225483Y0048412D01*
X0225847Y0049211D02*
X0231753Y0049211D01*
X0231423Y0050009D02*
X0226177Y0050009D01*
X0226300Y0050808D02*
X0231300Y0050808D01*
X0231300Y0051606D02*
X0226300Y0051606D01*
X0226254Y0052405D02*
X0231346Y0052405D01*
X0231676Y0053203D02*
X0225924Y0053203D01*
X0225593Y0054002D02*
X0232007Y0054002D01*
X0232729Y0054800D02*
X0224871Y0054800D01*
X0223987Y0055599D02*
X0233613Y0055599D01*
X0238987Y0055599D02*
X0243613Y0055599D01*
X0242729Y0054800D02*
X0239871Y0054800D01*
X0240593Y0054002D02*
X0242007Y0054002D01*
X0241676Y0053203D02*
X0240924Y0053203D01*
X0241254Y0052405D02*
X0241346Y0052405D01*
X0241300Y0051606D02*
X0241300Y0051606D01*
X0241300Y0050808D02*
X0241300Y0050808D01*
X0241177Y0050009D02*
X0241423Y0050009D01*
X0241382Y0049211D02*
X0240847Y0049211D01*
X0240584Y0048412D02*
X0240483Y0048412D01*
X0259400Y0057196D02*
X0188233Y0057196D01*
X0187574Y0057994D02*
X0259400Y0057994D01*
X0259400Y0058793D02*
X0187042Y0058793D01*
X0186509Y0059591D02*
X0259400Y0059591D01*
X0259400Y0060390D02*
X0185977Y0060390D01*
X0185445Y0061188D02*
X0259400Y0061188D01*
X0259400Y0061987D02*
X0184912Y0061987D01*
X0184380Y0062785D02*
X0259400Y0062785D01*
X0259400Y0063584D02*
X0183848Y0063584D01*
X0183315Y0064382D02*
X0259400Y0064382D01*
X0259400Y0065181D02*
X0182783Y0065181D01*
X0182251Y0065979D02*
X0259400Y0065979D01*
X0259400Y0066778D02*
X0181718Y0066778D01*
X0181186Y0067576D02*
X0259400Y0067576D01*
X0259400Y0068375D02*
X0180654Y0068375D01*
X0180121Y0069173D02*
X0259400Y0069173D01*
X0259400Y0069972D02*
X0179589Y0069972D01*
X0179057Y0070770D02*
X0259400Y0070770D01*
X0259400Y0071569D02*
X0178524Y0071569D01*
X0178061Y0072368D02*
X0259400Y0072368D01*
X0259400Y0073166D02*
X0177262Y0073166D01*
X0175230Y0069300D02*
X0184201Y0055843D01*
X0183468Y0055539D01*
X0182061Y0054132D01*
X0181300Y0052295D01*
X0181300Y0050305D01*
X0182061Y0048468D01*
X0182229Y0048300D01*
X0175371Y0048300D01*
X0175539Y0048468D01*
X0176300Y0050305D01*
X0176300Y0052295D01*
X0175539Y0054132D01*
X0174132Y0055539D01*
X0172295Y0056300D01*
X0170305Y0056300D01*
X0168468Y0055539D01*
X0167061Y0054132D01*
X0166300Y0052295D01*
X0165539Y0054132D01*
X0164132Y0055539D01*
X0162295Y0056300D01*
X0160305Y0056300D01*
X0158468Y0055539D01*
X0157061Y0054132D01*
X0156300Y0052295D01*
X0156300Y0050305D01*
X0157061Y0048468D01*
X0157229Y0048300D01*
X0134163Y0048300D01*
X0134238Y0048376D01*
X0135024Y0050273D01*
X0135024Y0052327D01*
X0134238Y0054224D01*
X0132786Y0055676D01*
X0131281Y0056300D01*
X0132786Y0056924D01*
X0134238Y0058376D01*
X0135024Y0060273D01*
X0135024Y0062327D01*
X0134238Y0064224D01*
X0132786Y0065676D01*
X0130930Y0066445D01*
X0131024Y0066460D01*
X0131767Y0066701D01*
X0132463Y0067056D01*
X0133095Y0067515D01*
X0133647Y0068067D01*
X0134106Y0068699D01*
X0134461Y0069395D01*
X0134702Y0070138D01*
X0134823Y0070900D01*
X0126700Y0070900D01*
X0126700Y0071700D01*
X0134823Y0071700D01*
X0134702Y0072462D01*
X0134461Y0073205D01*
X0134345Y0073432D01*
X0139852Y0069747D01*
X0140299Y0069300D01*
X0140520Y0069300D01*
X0140703Y0069177D01*
X0141323Y0069300D01*
X0175230Y0069300D01*
X0175314Y0069173D02*
X0134348Y0069173D01*
X0134648Y0069972D02*
X0139515Y0069972D01*
X0138322Y0070770D02*
X0134802Y0070770D01*
X0134717Y0072368D02*
X0135936Y0072368D01*
X0137129Y0071569D02*
X0126700Y0071569D01*
X0125900Y0071569D02*
X0111930Y0071569D01*
X0106300Y0066300D02*
X0095800Y0075300D01*
X0095800Y0121300D01*
X0114300Y0139800D01*
X0114300Y0156800D01*
X0108700Y0157010D02*
X0100921Y0157010D01*
X0100921Y0157200D02*
X0105920Y0157200D01*
X0105920Y0157225D01*
X0105787Y0158065D01*
X0105525Y0158873D01*
X0105139Y0159630D01*
X0104639Y0160318D01*
X0104038Y0160919D01*
X0103351Y0161418D01*
X0102593Y0161804D01*
X0101785Y0162067D01*
X0100945Y0162200D01*
X0100920Y0162200D01*
X0100920Y0157200D01*
X0100120Y0157200D01*
X0100120Y0156400D01*
X0095120Y0156400D01*
X0095120Y0156375D01*
X0095253Y0155535D01*
X0095516Y0154727D01*
X0095902Y0153970D01*
X0096402Y0153282D01*
X0097003Y0152681D01*
X0097690Y0152182D01*
X0098448Y0151796D01*
X0099256Y0151533D01*
X0100095Y0151400D01*
X0100120Y0151400D01*
X0100120Y0156400D01*
X0100920Y0156400D01*
X0100920Y0151400D01*
X0100945Y0151400D01*
X0101785Y0151533D01*
X0102593Y0151796D01*
X0103351Y0152182D01*
X0104038Y0152681D01*
X0104639Y0153282D01*
X0105139Y0153970D01*
X0105525Y0154727D01*
X0105787Y0155535D01*
X0105920Y0156375D01*
X0105920Y0156400D01*
X0100921Y0156400D01*
X0100921Y0157200D01*
X0100920Y0157808D02*
X0100120Y0157808D01*
X0100120Y0157200D02*
X0100120Y0162200D01*
X0100095Y0162200D01*
X0099256Y0162067D01*
X0098448Y0161804D01*
X0097690Y0161418D01*
X0097003Y0160919D01*
X0096402Y0160318D01*
X0095902Y0159630D01*
X0095516Y0158873D01*
X0095253Y0158065D01*
X0095120Y0157225D01*
X0095120Y0157200D01*
X0100120Y0157200D01*
X0100120Y0157010D02*
X0082439Y0157010D01*
X0082284Y0156638D02*
X0083000Y0158365D01*
X0083000Y0160235D01*
X0082284Y0161962D01*
X0080962Y0163284D01*
X0079235Y0164000D01*
X0077365Y0164000D01*
X0075638Y0163284D01*
X0074316Y0161962D01*
X0073600Y0160235D01*
X0073600Y0158365D01*
X0074316Y0156638D01*
X0075638Y0155316D01*
X0077365Y0154600D01*
X0079235Y0154600D01*
X0080962Y0155316D01*
X0082284Y0156638D01*
X0081858Y0156211D02*
X0095146Y0156211D01*
X0095293Y0155413D02*
X0081059Y0155413D01*
X0079269Y0154614D02*
X0095574Y0154614D01*
X0096014Y0153816D02*
X0079680Y0153816D01*
X0079235Y0154000D02*
X0077365Y0154000D01*
X0075638Y0153284D01*
X0074316Y0151962D01*
X0073600Y0150235D01*
X0073600Y0148365D01*
X0074316Y0146638D01*
X0075638Y0145316D01*
X0077365Y0144600D01*
X0079235Y0144600D01*
X0080962Y0145316D01*
X0082284Y0146638D01*
X0083000Y0148365D01*
X0083000Y0150235D01*
X0082284Y0151962D01*
X0080962Y0153284D01*
X0079235Y0154000D01*
X0077331Y0154614D02*
X0008200Y0154614D01*
X0008200Y0153816D02*
X0016920Y0153816D01*
X0017365Y0154000D02*
X0015638Y0153284D01*
X0014316Y0151962D01*
X0013600Y0150235D01*
X0013600Y0148365D01*
X0014316Y0146638D01*
X0015638Y0145316D01*
X0017365Y0144600D01*
X0019235Y0144600D01*
X0020962Y0145316D01*
X0022284Y0146638D01*
X0023000Y0148365D01*
X0023000Y0150235D01*
X0022284Y0151962D01*
X0020962Y0153284D01*
X0019235Y0154000D01*
X0017365Y0154000D01*
X0017246Y0154911D02*
X0017900Y0154807D01*
X0017900Y0158900D01*
X0018700Y0158900D01*
X0018700Y0159700D01*
X0022793Y0159700D01*
X0022689Y0160354D01*
X0022470Y0161027D01*
X0022149Y0161659D01*
X0021732Y0162232D01*
X0021232Y0162732D01*
X0020659Y0163149D01*
X0020027Y0163470D01*
X0019354Y0163689D01*
X0018700Y0163793D01*
X0018700Y0159700D01*
X0017900Y0159700D01*
X0017900Y0163793D01*
X0017246Y0163689D01*
X0016573Y0163470D01*
X0015941Y0163149D01*
X0015368Y0162732D01*
X0014868Y0162232D01*
X0014451Y0161659D01*
X0014130Y0161027D01*
X0013911Y0160354D01*
X0013807Y0159700D01*
X0017900Y0159700D01*
X0017900Y0158900D01*
X0013807Y0158900D01*
X0013911Y0158246D01*
X0014130Y0157573D01*
X0014451Y0156941D01*
X0014868Y0156368D01*
X0015368Y0155868D01*
X0015941Y0155451D01*
X0016573Y0155130D01*
X0017246Y0154911D01*
X0017900Y0155413D02*
X0018700Y0155413D01*
X0018700Y0154807D02*
X0019354Y0154911D01*
X0020027Y0155130D01*
X0020659Y0155451D01*
X0021232Y0155868D01*
X0021732Y0156368D01*
X0022149Y0156941D01*
X0022470Y0157573D01*
X0022689Y0158246D01*
X0022793Y0158900D01*
X0018700Y0158900D01*
X0018700Y0154807D01*
X0019680Y0153816D02*
X0066920Y0153816D01*
X0067365Y0154000D02*
X0065638Y0153284D01*
X0064316Y0151962D01*
X0063600Y0150235D01*
X0063600Y0148365D01*
X0064316Y0146638D01*
X0065638Y0145316D01*
X0067365Y0144600D01*
X0069235Y0144600D01*
X0070962Y0145316D01*
X0072284Y0146638D01*
X0073000Y0148365D01*
X0073000Y0150235D01*
X0072284Y0151962D01*
X0070962Y0153284D01*
X0069235Y0154000D01*
X0067365Y0154000D01*
X0065370Y0153017D02*
X0021230Y0153017D01*
X0022028Y0152219D02*
X0064572Y0152219D01*
X0064091Y0151420D02*
X0022509Y0151420D01*
X0022840Y0150622D02*
X0063760Y0150622D01*
X0063600Y0149823D02*
X0023000Y0149823D01*
X0023000Y0149025D02*
X0063600Y0149025D01*
X0063658Y0148226D02*
X0022942Y0148226D01*
X0022612Y0147428D02*
X0063988Y0147428D01*
X0064324Y0146629D02*
X0022276Y0146629D01*
X0021477Y0145831D02*
X0065123Y0145831D01*
X0066322Y0145032D02*
X0020278Y0145032D01*
X0019235Y0144000D02*
X0017365Y0144000D01*
X0015638Y0143284D01*
X0014316Y0141962D01*
X0013600Y0140235D01*
X0013600Y0138365D01*
X0014316Y0136638D01*
X0015638Y0135316D01*
X0017365Y0134600D01*
X0019235Y0134600D01*
X0020962Y0135316D01*
X0022284Y0136638D01*
X0023000Y0138365D01*
X0023000Y0140235D01*
X0022284Y0141962D01*
X0020962Y0143284D01*
X0019235Y0144000D01*
X0020599Y0143435D02*
X0076001Y0143435D01*
X0075638Y0143284D02*
X0074316Y0141962D01*
X0073600Y0140235D01*
X0073600Y0138365D01*
X0074316Y0136638D01*
X0075638Y0135316D01*
X0077365Y0134600D01*
X0079235Y0134600D01*
X0080962Y0135316D01*
X0082284Y0136638D01*
X0083000Y0138365D01*
X0083000Y0140235D01*
X0082284Y0141962D01*
X0080962Y0143284D01*
X0079235Y0144000D01*
X0077365Y0144000D01*
X0075638Y0143284D01*
X0074990Y0142637D02*
X0021610Y0142637D01*
X0022336Y0141838D02*
X0074264Y0141838D01*
X0073933Y0141039D02*
X0022667Y0141039D01*
X0022997Y0140241D02*
X0073603Y0140241D01*
X0073600Y0139442D02*
X0023000Y0139442D01*
X0023000Y0138644D02*
X0073600Y0138644D01*
X0073815Y0137845D02*
X0022785Y0137845D01*
X0022454Y0137047D02*
X0074146Y0137047D01*
X0074705Y0136248D02*
X0021895Y0136248D01*
X0021097Y0135450D02*
X0075503Y0135450D01*
X0077241Y0134651D02*
X0019359Y0134651D01*
X0019235Y0134000D02*
X0017365Y0134000D01*
X0015638Y0133284D01*
X0014316Y0131962D01*
X0013600Y0130235D01*
X0013600Y0128365D01*
X0014316Y0126638D01*
X0015638Y0125316D01*
X0017365Y0124600D01*
X0019235Y0124600D01*
X0020962Y0125316D01*
X0022284Y0126638D01*
X0023000Y0128365D01*
X0023000Y0130235D01*
X0022284Y0131962D01*
X0020962Y0133284D01*
X0019235Y0134000D01*
X0019590Y0133853D02*
X0067010Y0133853D01*
X0067365Y0134000D02*
X0065638Y0133284D01*
X0064316Y0131962D01*
X0063600Y0130235D01*
X0063600Y0128365D01*
X0064316Y0126638D01*
X0065638Y0125316D01*
X0067365Y0124600D01*
X0069235Y0124600D01*
X0070962Y0125316D01*
X0072284Y0126638D01*
X0073000Y0128365D01*
X0073000Y0130235D01*
X0072284Y0131962D01*
X0070962Y0133284D01*
X0069235Y0134000D01*
X0067365Y0134000D01*
X0065408Y0133054D02*
X0021192Y0133054D01*
X0021991Y0132256D02*
X0064609Y0132256D01*
X0064106Y0131457D02*
X0022494Y0131457D01*
X0022824Y0130659D02*
X0063776Y0130659D01*
X0063600Y0129860D02*
X0023000Y0129860D01*
X0023000Y0129062D02*
X0063600Y0129062D01*
X0063642Y0128263D02*
X0022958Y0128263D01*
X0022627Y0127465D02*
X0063973Y0127465D01*
X0064304Y0126666D02*
X0022296Y0126666D01*
X0021515Y0125868D02*
X0065085Y0125868D01*
X0066232Y0125069D02*
X0020368Y0125069D01*
X0019235Y0124000D02*
X0017365Y0124000D01*
X0015638Y0123284D01*
X0014316Y0121962D01*
X0013600Y0120235D01*
X0013600Y0118365D01*
X0014316Y0116638D01*
X0015638Y0115316D01*
X0017365Y0114600D01*
X0019235Y0114600D01*
X0020962Y0115316D01*
X0022284Y0116638D01*
X0023000Y0118365D01*
X0023000Y0120235D01*
X0022284Y0121962D01*
X0020962Y0123284D01*
X0019235Y0124000D01*
X0020509Y0123472D02*
X0066091Y0123472D01*
X0065638Y0123284D02*
X0064316Y0121962D01*
X0063600Y0120235D01*
X0063600Y0118365D01*
X0064316Y0116638D01*
X0065638Y0115316D01*
X0067365Y0114600D01*
X0069235Y0114600D01*
X0070962Y0115316D01*
X0072284Y0116638D01*
X0073000Y0118365D01*
X0073000Y0120235D01*
X0072284Y0121962D01*
X0070962Y0123284D01*
X0069235Y0124000D01*
X0067365Y0124000D01*
X0065638Y0123284D01*
X0065027Y0122674D02*
X0021573Y0122674D01*
X0022321Y0121875D02*
X0064279Y0121875D01*
X0063949Y0121077D02*
X0022651Y0121077D01*
X0022982Y0120278D02*
X0063618Y0120278D01*
X0063600Y0119480D02*
X0023000Y0119480D01*
X0023000Y0118681D02*
X0063600Y0118681D01*
X0063800Y0117883D02*
X0022800Y0117883D01*
X0022469Y0117084D02*
X0064131Y0117084D01*
X0064668Y0116286D02*
X0021932Y0116286D01*
X0021134Y0115487D02*
X0065466Y0115487D01*
X0067151Y0114689D02*
X0019449Y0114689D01*
X0019235Y0114000D02*
X0017365Y0114000D01*
X0015638Y0113284D01*
X0014316Y0111962D01*
X0013600Y0110235D01*
X0013600Y0108365D01*
X0014316Y0106638D01*
X0015638Y0105316D01*
X0017365Y0104600D01*
X0019235Y0104600D01*
X0020962Y0105316D01*
X0022284Y0106638D01*
X0023000Y0108365D01*
X0023000Y0110235D01*
X0022284Y0111962D01*
X0020962Y0113284D01*
X0019235Y0114000D01*
X0019500Y0113890D02*
X0067100Y0113890D01*
X0067365Y0114000D02*
X0065638Y0113284D01*
X0064316Y0111962D01*
X0063600Y0110235D01*
X0063600Y0108365D01*
X0064316Y0106638D01*
X0065638Y0105316D01*
X0067365Y0104600D01*
X0069235Y0104600D01*
X0070962Y0105316D01*
X0072284Y0106638D01*
X0073000Y0108365D01*
X0073000Y0110235D01*
X0072284Y0111962D01*
X0070962Y0113284D01*
X0069235Y0114000D01*
X0067365Y0114000D01*
X0065445Y0113092D02*
X0021155Y0113092D01*
X0021954Y0112293D02*
X0064646Y0112293D01*
X0064122Y0111495D02*
X0022478Y0111495D01*
X0022809Y0110696D02*
X0063791Y0110696D01*
X0063600Y0109898D02*
X0023000Y0109898D01*
X0023000Y0109099D02*
X0063600Y0109099D01*
X0063627Y0108301D02*
X0022973Y0108301D01*
X0022642Y0107502D02*
X0063957Y0107502D01*
X0064288Y0106703D02*
X0022312Y0106703D01*
X0021552Y0105905D02*
X0065048Y0105905D01*
X0066142Y0105106D02*
X0020458Y0105106D01*
X0020419Y0103509D02*
X0076181Y0103509D01*
X0075638Y0103284D02*
X0074316Y0101962D01*
X0073600Y0100235D01*
X0073600Y0098365D01*
X0074316Y0096638D01*
X0075638Y0095316D01*
X0077365Y0094600D01*
X0079235Y0094600D01*
X0080962Y0095316D01*
X0082284Y0096638D01*
X0083000Y0098365D01*
X0083000Y0100235D01*
X0082284Y0101962D01*
X0080962Y0103284D01*
X0079235Y0104000D01*
X0077365Y0104000D01*
X0075638Y0103284D01*
X0075064Y0102711D02*
X0021536Y0102711D01*
X0020962Y0103284D02*
X0022284Y0101962D01*
X0023000Y0100235D01*
X0023000Y0098365D01*
X0022284Y0096638D01*
X0020962Y0095316D01*
X0019235Y0094600D01*
X0017365Y0094600D01*
X0015638Y0095316D01*
X0014316Y0096638D01*
X0013600Y0098365D01*
X0013600Y0100235D01*
X0014316Y0101962D01*
X0015638Y0103284D01*
X0017365Y0104000D01*
X0019235Y0104000D01*
X0020962Y0103284D01*
X0022305Y0101912D02*
X0074295Y0101912D01*
X0073964Y0101114D02*
X0022636Y0101114D01*
X0022967Y0100315D02*
X0073633Y0100315D01*
X0073600Y0099517D02*
X0023000Y0099517D01*
X0023000Y0098718D02*
X0073600Y0098718D01*
X0073784Y0097920D02*
X0022816Y0097920D01*
X0022485Y0097121D02*
X0074115Y0097121D01*
X0074630Y0096323D02*
X0021970Y0096323D01*
X0021171Y0095524D02*
X0075429Y0095524D01*
X0077061Y0094726D02*
X0019539Y0094726D01*
X0019235Y0094000D02*
X0017365Y0094000D01*
X0015638Y0093284D01*
X0014316Y0091962D01*
X0013600Y0090235D01*
X0013600Y0088365D01*
X0014316Y0086638D01*
X0015638Y0085316D01*
X0017365Y0084600D01*
X0019235Y0084600D01*
X0020962Y0085316D01*
X0022284Y0086638D01*
X0023000Y0088365D01*
X0023000Y0090235D01*
X0022284Y0091962D01*
X0020962Y0093284D01*
X0019235Y0094000D01*
X0019410Y0093927D02*
X0077190Y0093927D01*
X0077365Y0094000D02*
X0075638Y0093284D01*
X0074316Y0091962D01*
X0073600Y0090235D01*
X0073600Y0088365D01*
X0074316Y0086638D01*
X0075638Y0085316D01*
X0077365Y0084600D01*
X0079235Y0084600D01*
X0080962Y0085316D01*
X0082284Y0086638D01*
X0083000Y0088365D01*
X0083000Y0090235D01*
X0082284Y0091962D01*
X0080962Y0093284D01*
X0079235Y0094000D01*
X0077365Y0094000D01*
X0079410Y0093927D02*
X0093800Y0093927D01*
X0093800Y0093129D02*
X0081118Y0093129D01*
X0081916Y0092330D02*
X0093800Y0092330D01*
X0093800Y0091532D02*
X0082463Y0091532D01*
X0082794Y0090733D02*
X0093800Y0090733D01*
X0093800Y0089935D02*
X0083000Y0089935D01*
X0083000Y0089136D02*
X0093800Y0089136D01*
X0093800Y0088338D02*
X0082989Y0088338D01*
X0082658Y0087539D02*
X0093800Y0087539D01*
X0093800Y0086741D02*
X0082327Y0086741D01*
X0081589Y0085942D02*
X0093800Y0085942D01*
X0093800Y0085144D02*
X0080547Y0085144D01*
X0080329Y0083547D02*
X0093800Y0083547D01*
X0093800Y0084345D02*
X0008200Y0084345D01*
X0008200Y0083547D02*
X0016271Y0083547D01*
X0015638Y0083284D02*
X0017365Y0084000D01*
X0019235Y0084000D01*
X0020962Y0083284D01*
X0022284Y0081962D01*
X0023000Y0080235D01*
X0023000Y0078365D01*
X0022284Y0076638D01*
X0020962Y0075316D01*
X0019235Y0074600D01*
X0017365Y0074600D01*
X0015638Y0075316D01*
X0014316Y0076638D01*
X0013600Y0078365D01*
X0013600Y0080235D01*
X0014316Y0081962D01*
X0015638Y0083284D01*
X0015101Y0082748D02*
X0008200Y0082748D01*
X0008200Y0081950D02*
X0014310Y0081950D01*
X0013980Y0081151D02*
X0008200Y0081151D01*
X0008200Y0080353D02*
X0013649Y0080353D01*
X0013600Y0079554D02*
X0008200Y0079554D01*
X0008200Y0078756D02*
X0013600Y0078756D01*
X0013769Y0077957D02*
X0008200Y0077957D01*
X0008200Y0077159D02*
X0014100Y0077159D01*
X0014593Y0076360D02*
X0008200Y0076360D01*
X0008200Y0075562D02*
X0015392Y0075562D01*
X0016971Y0074763D02*
X0008200Y0074763D01*
X0008200Y0073965D02*
X0017280Y0073965D01*
X0017365Y0074000D02*
X0015638Y0073284D01*
X0014316Y0071962D01*
X0013600Y0070235D01*
X0013600Y0068365D01*
X0014316Y0066638D01*
X0015638Y0065316D01*
X0017365Y0064600D01*
X0019235Y0064600D01*
X0020962Y0065316D01*
X0022284Y0066638D01*
X0023000Y0068365D01*
X0023000Y0070235D01*
X0022284Y0071962D01*
X0020962Y0073284D01*
X0019235Y0074000D01*
X0017365Y0074000D01*
X0019320Y0073965D02*
X0077280Y0073965D01*
X0077365Y0074000D02*
X0075638Y0073284D01*
X0074316Y0071962D01*
X0073600Y0070235D01*
X0073600Y0068365D01*
X0074316Y0066638D01*
X0075638Y0065316D01*
X0077365Y0064600D01*
X0079235Y0064600D01*
X0080962Y0065316D01*
X0082284Y0066638D01*
X0083000Y0068365D01*
X0083000Y0070235D01*
X0082284Y0071962D01*
X0080962Y0073284D01*
X0079235Y0074000D01*
X0077365Y0074000D01*
X0077365Y0074600D02*
X0075638Y0075316D01*
X0074316Y0076638D01*
X0073600Y0078365D01*
X0073600Y0080235D01*
X0074316Y0081962D01*
X0075638Y0083284D01*
X0077365Y0084000D01*
X0079235Y0084000D01*
X0080962Y0083284D01*
X0082284Y0081962D01*
X0083000Y0080235D01*
X0083000Y0078365D01*
X0082284Y0076638D01*
X0080962Y0075316D01*
X0079235Y0074600D01*
X0077365Y0074600D01*
X0076971Y0074763D02*
X0019629Y0074763D01*
X0021208Y0075562D02*
X0075392Y0075562D01*
X0074593Y0076360D02*
X0022007Y0076360D01*
X0022500Y0077159D02*
X0074100Y0077159D01*
X0073769Y0077957D02*
X0022831Y0077957D01*
X0023000Y0078756D02*
X0073600Y0078756D01*
X0073600Y0079554D02*
X0023000Y0079554D01*
X0022951Y0080353D02*
X0073649Y0080353D01*
X0073980Y0081151D02*
X0022620Y0081151D01*
X0022290Y0081950D02*
X0074310Y0081950D01*
X0075101Y0082748D02*
X0021499Y0082748D01*
X0020329Y0083547D02*
X0076271Y0083547D01*
X0076053Y0085144D02*
X0020547Y0085144D01*
X0021589Y0085942D02*
X0075011Y0085942D01*
X0074273Y0086741D02*
X0022327Y0086741D01*
X0022658Y0087539D02*
X0073942Y0087539D01*
X0073611Y0088338D02*
X0022989Y0088338D01*
X0023000Y0089136D02*
X0073600Y0089136D01*
X0073600Y0089935D02*
X0023000Y0089935D01*
X0022794Y0090733D02*
X0073806Y0090733D01*
X0074137Y0091532D02*
X0022463Y0091532D01*
X0021916Y0092330D02*
X0074683Y0092330D01*
X0075482Y0093129D02*
X0021118Y0093129D01*
X0017190Y0093927D02*
X0008200Y0093927D01*
X0008200Y0093129D02*
X0015482Y0093129D01*
X0014683Y0092330D02*
X0008200Y0092330D01*
X0008200Y0091532D02*
X0014137Y0091532D01*
X0013806Y0090733D02*
X0008200Y0090733D01*
X0008200Y0089935D02*
X0013600Y0089935D01*
X0013600Y0089136D02*
X0008200Y0089136D01*
X0008200Y0088338D02*
X0013611Y0088338D01*
X0013942Y0087539D02*
X0008200Y0087539D01*
X0008200Y0086741D02*
X0014273Y0086741D01*
X0015011Y0085942D02*
X0008200Y0085942D01*
X0008200Y0085144D02*
X0016053Y0085144D01*
X0017061Y0094726D02*
X0008200Y0094726D01*
X0008200Y0095524D02*
X0015429Y0095524D01*
X0014630Y0096323D02*
X0008200Y0096323D01*
X0008200Y0097121D02*
X0014115Y0097121D01*
X0013784Y0097920D02*
X0008200Y0097920D01*
X0008200Y0098718D02*
X0013600Y0098718D01*
X0013600Y0099517D02*
X0008200Y0099517D01*
X0008200Y0100315D02*
X0013633Y0100315D01*
X0013964Y0101114D02*
X0008200Y0101114D01*
X0008200Y0101912D02*
X0014295Y0101912D01*
X0015064Y0102711D02*
X0008200Y0102711D01*
X0008200Y0103509D02*
X0016181Y0103509D01*
X0016142Y0105106D02*
X0008200Y0105106D01*
X0008200Y0104308D02*
X0093800Y0104308D01*
X0093800Y0105106D02*
X0080458Y0105106D01*
X0080962Y0105316D02*
X0082284Y0106638D01*
X0083000Y0108365D01*
X0083000Y0110235D01*
X0082284Y0111962D01*
X0080962Y0113284D01*
X0079235Y0114000D01*
X0077365Y0114000D01*
X0075638Y0113284D01*
X0074316Y0111962D01*
X0073600Y0110235D01*
X0073600Y0108365D01*
X0074316Y0106638D01*
X0075638Y0105316D01*
X0077365Y0104600D01*
X0079235Y0104600D01*
X0080962Y0105316D01*
X0081552Y0105905D02*
X0093800Y0105905D01*
X0093800Y0106703D02*
X0082312Y0106703D01*
X0082642Y0107502D02*
X0093800Y0107502D01*
X0093800Y0108301D02*
X0082973Y0108301D01*
X0083000Y0109099D02*
X0093800Y0109099D01*
X0093800Y0109898D02*
X0083000Y0109898D01*
X0082809Y0110696D02*
X0093800Y0110696D01*
X0093800Y0111495D02*
X0082478Y0111495D01*
X0081954Y0112293D02*
X0093800Y0112293D01*
X0093800Y0113092D02*
X0081155Y0113092D01*
X0079500Y0113890D02*
X0093800Y0113890D01*
X0093800Y0114689D02*
X0079449Y0114689D01*
X0079235Y0114600D02*
X0080962Y0115316D01*
X0082284Y0116638D01*
X0083000Y0118365D01*
X0083000Y0120235D01*
X0082284Y0121962D01*
X0080962Y0123284D01*
X0079235Y0124000D01*
X0077365Y0124000D01*
X0075638Y0123284D01*
X0074316Y0121962D01*
X0073600Y0120235D01*
X0073600Y0118365D01*
X0074316Y0116638D01*
X0075638Y0115316D01*
X0077365Y0114600D01*
X0079235Y0114600D01*
X0077151Y0114689D02*
X0069449Y0114689D01*
X0069500Y0113890D02*
X0077100Y0113890D01*
X0075445Y0113092D02*
X0071155Y0113092D01*
X0071954Y0112293D02*
X0074646Y0112293D01*
X0074122Y0111495D02*
X0072478Y0111495D01*
X0072809Y0110696D02*
X0073791Y0110696D01*
X0073600Y0109898D02*
X0073000Y0109898D01*
X0073000Y0109099D02*
X0073600Y0109099D01*
X0073627Y0108301D02*
X0072973Y0108301D01*
X0072642Y0107502D02*
X0073957Y0107502D01*
X0074288Y0106703D02*
X0072312Y0106703D01*
X0071552Y0105905D02*
X0075048Y0105905D01*
X0076142Y0105106D02*
X0070458Y0105106D01*
X0080419Y0103509D02*
X0093800Y0103509D01*
X0093800Y0102711D02*
X0081536Y0102711D01*
X0082305Y0101912D02*
X0093800Y0101912D01*
X0093800Y0101114D02*
X0082636Y0101114D01*
X0082967Y0100315D02*
X0093800Y0100315D01*
X0093800Y0099517D02*
X0083000Y0099517D01*
X0083000Y0098718D02*
X0093800Y0098718D01*
X0093800Y0097920D02*
X0082816Y0097920D01*
X0082485Y0097121D02*
X0093800Y0097121D01*
X0093800Y0096323D02*
X0081970Y0096323D01*
X0081171Y0095524D02*
X0093800Y0095524D01*
X0093800Y0094726D02*
X0079539Y0094726D01*
X0081499Y0082748D02*
X0093800Y0082748D01*
X0093800Y0081950D02*
X0082290Y0081950D01*
X0082620Y0081151D02*
X0093800Y0081151D01*
X0093800Y0080353D02*
X0082951Y0080353D01*
X0083000Y0079554D02*
X0093800Y0079554D01*
X0093800Y0078756D02*
X0083000Y0078756D01*
X0082831Y0077957D02*
X0093800Y0077957D01*
X0093800Y0077159D02*
X0082500Y0077159D01*
X0082007Y0076360D02*
X0093800Y0076360D01*
X0093774Y0075562D02*
X0081208Y0075562D01*
X0079629Y0074763D02*
X0093800Y0074763D01*
X0094285Y0073965D02*
X0079320Y0073965D01*
X0081081Y0073166D02*
X0095216Y0073166D01*
X0096148Y0072368D02*
X0081879Y0072368D01*
X0082447Y0071569D02*
X0097080Y0071569D01*
X0098011Y0070770D02*
X0082778Y0070770D01*
X0083000Y0069972D02*
X0098943Y0069972D01*
X0098341Y0069173D02*
X0083000Y0069173D01*
X0083000Y0068375D02*
X0098010Y0068375D01*
X0097679Y0067576D02*
X0082673Y0067576D01*
X0082343Y0066778D02*
X0097576Y0066778D01*
X0097576Y0065979D02*
X0081626Y0065979D01*
X0080637Y0065181D02*
X0097614Y0065181D01*
X0097945Y0064382D02*
X0008200Y0064382D01*
X0008200Y0063584D02*
X0016361Y0063584D01*
X0015638Y0063284D02*
X0014316Y0061962D01*
X0013600Y0060235D01*
X0013600Y0058365D01*
X0014316Y0056638D01*
X0015638Y0055316D01*
X0017365Y0054600D01*
X0019235Y0054600D01*
X0020962Y0055316D01*
X0022284Y0056638D01*
X0023000Y0058365D01*
X0023000Y0060235D01*
X0022284Y0061962D01*
X0020962Y0063284D01*
X0019235Y0064000D01*
X0017365Y0064000D01*
X0015638Y0063284D01*
X0015139Y0062785D02*
X0008200Y0062785D01*
X0008200Y0061987D02*
X0014340Y0061987D01*
X0013995Y0061188D02*
X0008200Y0061188D01*
X0008200Y0060390D02*
X0013664Y0060390D01*
X0013600Y0059591D02*
X0008200Y0059591D01*
X0008200Y0058793D02*
X0013600Y0058793D01*
X0013754Y0057994D02*
X0008200Y0057994D01*
X0008200Y0057196D02*
X0014084Y0057196D01*
X0014556Y0056397D02*
X0008200Y0056397D01*
X0008200Y0055599D02*
X0015354Y0055599D01*
X0016882Y0054800D02*
X0008200Y0054800D01*
X0008200Y0054002D02*
X0098102Y0054002D01*
X0097771Y0054800D02*
X0079718Y0054800D01*
X0079235Y0054600D02*
X0080962Y0055316D01*
X0082284Y0056638D01*
X0083000Y0058365D01*
X0083000Y0060235D01*
X0082284Y0061962D01*
X0080962Y0063284D01*
X0079235Y0064000D01*
X0077365Y0064000D01*
X0075638Y0063284D01*
X0074316Y0061962D01*
X0073600Y0060235D01*
X0073600Y0058365D01*
X0074316Y0056638D01*
X0075638Y0055316D01*
X0077365Y0054600D01*
X0079235Y0054600D01*
X0079235Y0054000D02*
X0077365Y0054000D01*
X0075638Y0053284D01*
X0074316Y0051962D01*
X0073600Y0050235D01*
X0073600Y0048365D01*
X0074316Y0046638D01*
X0075638Y0045316D01*
X0077365Y0044600D01*
X0079235Y0044600D01*
X0080962Y0045316D01*
X0082284Y0046638D01*
X0083000Y0048365D01*
X0083000Y0050235D01*
X0082284Y0051962D01*
X0080962Y0053284D01*
X0079235Y0054000D01*
X0081044Y0053203D02*
X0098534Y0053203D01*
X0099333Y0052405D02*
X0081842Y0052405D01*
X0082432Y0051606D02*
X0100580Y0051606D01*
X0100131Y0050808D02*
X0082763Y0050808D01*
X0083000Y0050009D02*
X0099147Y0050009D01*
X0098356Y0049211D02*
X0083000Y0049211D01*
X0083000Y0048412D02*
X0098025Y0048412D01*
X0097694Y0047614D02*
X0082689Y0047614D01*
X0082358Y0046815D02*
X0097576Y0046815D01*
X0097576Y0046017D02*
X0081663Y0046017D01*
X0080727Y0045218D02*
X0097598Y0045218D01*
X0097929Y0044420D02*
X0008200Y0044420D01*
X0008200Y0045218D02*
X0015873Y0045218D01*
X0015638Y0045316D02*
X0017365Y0044600D01*
X0019235Y0044600D01*
X0020962Y0045316D01*
X0022284Y0046638D01*
X0023000Y0048365D01*
X0023000Y0050235D01*
X0022284Y0051962D01*
X0020962Y0053284D01*
X0019235Y0054000D01*
X0017365Y0054000D01*
X0015638Y0053284D01*
X0014316Y0051962D01*
X0013600Y0050235D01*
X0013600Y0048365D01*
X0014316Y0046638D01*
X0015638Y0045316D01*
X0014937Y0046017D02*
X0008200Y0046017D01*
X0008200Y0046815D02*
X0014242Y0046815D01*
X0013911Y0047614D02*
X0008200Y0047614D01*
X0008200Y0048412D02*
X0013600Y0048412D01*
X0013600Y0049211D02*
X0008200Y0049211D01*
X0008200Y0050009D02*
X0013600Y0050009D01*
X0013837Y0050808D02*
X0008200Y0050808D01*
X0008200Y0051606D02*
X0014168Y0051606D01*
X0014758Y0052405D02*
X0008200Y0052405D01*
X0008200Y0053203D02*
X0015556Y0053203D01*
X0019718Y0054800D02*
X0076882Y0054800D01*
X0075354Y0055599D02*
X0021246Y0055599D01*
X0022044Y0056397D02*
X0074556Y0056397D01*
X0074084Y0057196D02*
X0022516Y0057196D01*
X0022846Y0057994D02*
X0073754Y0057994D01*
X0073600Y0058793D02*
X0023000Y0058793D01*
X0023000Y0059591D02*
X0073600Y0059591D01*
X0073664Y0060390D02*
X0022936Y0060390D01*
X0022605Y0061188D02*
X0073995Y0061188D01*
X0074340Y0061987D02*
X0022260Y0061987D01*
X0021461Y0062785D02*
X0075139Y0062785D01*
X0076361Y0063584D02*
X0020239Y0063584D01*
X0020637Y0065181D02*
X0075963Y0065181D01*
X0074974Y0065979D02*
X0021626Y0065979D01*
X0022343Y0066778D02*
X0074257Y0066778D01*
X0073927Y0067576D02*
X0022673Y0067576D01*
X0023000Y0068375D02*
X0073600Y0068375D01*
X0073600Y0069173D02*
X0023000Y0069173D01*
X0023000Y0069972D02*
X0073600Y0069972D01*
X0073822Y0070770D02*
X0022778Y0070770D01*
X0022447Y0071569D02*
X0074153Y0071569D01*
X0074721Y0072368D02*
X0021879Y0072368D01*
X0021081Y0073166D02*
X0075519Y0073166D01*
X0080239Y0063584D02*
X0098275Y0063584D01*
X0098952Y0062785D02*
X0081461Y0062785D01*
X0082260Y0061987D02*
X0099750Y0061987D01*
X0101050Y0061188D02*
X0082605Y0061188D01*
X0082936Y0060390D02*
X0099527Y0060390D01*
X0098729Y0059591D02*
X0083000Y0059591D01*
X0083000Y0058793D02*
X0098183Y0058793D01*
X0097852Y0057994D02*
X0082846Y0057994D01*
X0082516Y0057196D02*
X0097576Y0057196D01*
X0097576Y0056397D02*
X0082044Y0056397D01*
X0081246Y0055599D02*
X0097576Y0055599D01*
X0098260Y0043621D02*
X0080150Y0043621D01*
X0080962Y0043284D02*
X0079235Y0044000D01*
X0077365Y0044000D01*
X0075638Y0043284D01*
X0074316Y0041962D01*
X0073600Y0040235D01*
X0073600Y0038365D01*
X0074316Y0036638D01*
X0075638Y0035316D01*
X0077365Y0034600D01*
X0079235Y0034600D01*
X0080962Y0035316D01*
X0082284Y0036638D01*
X0083000Y0038365D01*
X0083000Y0040235D01*
X0082284Y0041962D01*
X0080962Y0043284D01*
X0081424Y0042823D02*
X0098915Y0042823D01*
X0099713Y0042024D02*
X0082223Y0042024D01*
X0082590Y0041226D02*
X0101140Y0041226D01*
X0099564Y0040427D02*
X0082920Y0040427D01*
X0083000Y0039629D02*
X0098766Y0039629D01*
X0098198Y0038830D02*
X0083000Y0038830D01*
X0082862Y0038032D02*
X0097867Y0038032D01*
X0097576Y0037233D02*
X0082531Y0037233D01*
X0082081Y0036434D02*
X0097576Y0036434D01*
X0097576Y0035636D02*
X0081283Y0035636D01*
X0079808Y0034837D02*
X0097756Y0034837D01*
X0098087Y0034039D02*
X0008200Y0034039D01*
X0008200Y0034837D02*
X0016792Y0034837D01*
X0017365Y0034600D02*
X0019235Y0034600D01*
X0020962Y0035316D01*
X0022284Y0036638D01*
X0023000Y0038365D01*
X0023000Y0040235D01*
X0022284Y0041962D01*
X0020962Y0043284D01*
X0019235Y0044000D01*
X0017365Y0044000D01*
X0015638Y0043284D01*
X0014316Y0041962D01*
X0013600Y0040235D01*
X0013600Y0038365D01*
X0014316Y0036638D01*
X0015638Y0035316D01*
X0017365Y0034600D01*
X0017365Y0034000D02*
X0015638Y0033284D01*
X0014316Y0031962D01*
X0013600Y0030235D01*
X0013600Y0028365D01*
X0014316Y0026638D01*
X0015638Y0025316D01*
X0017365Y0024600D01*
X0019235Y0024600D01*
X0020962Y0025316D01*
X0022284Y0026638D01*
X0023000Y0028365D01*
X0023000Y0030235D01*
X0022284Y0031962D01*
X0020962Y0033284D01*
X0019235Y0034000D01*
X0017365Y0034000D01*
X0015594Y0033240D02*
X0008200Y0033240D01*
X0008200Y0032442D02*
X0014795Y0032442D01*
X0014183Y0031643D02*
X0008200Y0031643D01*
X0008200Y0030845D02*
X0013853Y0030845D01*
X0013600Y0030046D02*
X0008200Y0030046D01*
X0008200Y0029248D02*
X0013600Y0029248D01*
X0013600Y0028449D02*
X0008200Y0028449D01*
X0008200Y0027651D02*
X0013896Y0027651D01*
X0014227Y0026852D02*
X0008200Y0026852D01*
X0008200Y0026054D02*
X0014899Y0026054D01*
X0015783Y0025255D02*
X0008200Y0025255D01*
X0020817Y0025255D02*
X0025783Y0025255D01*
X0025638Y0025316D02*
X0027365Y0024600D01*
X0029235Y0024600D01*
X0030962Y0025316D01*
X0032284Y0026638D01*
X0033000Y0028365D01*
X0033000Y0030235D01*
X0032284Y0031962D01*
X0030962Y0033284D01*
X0029235Y0034000D01*
X0027365Y0034000D01*
X0025638Y0033284D01*
X0024316Y0031962D01*
X0023600Y0030235D01*
X0023600Y0028365D01*
X0024316Y0026638D01*
X0025638Y0025316D01*
X0024899Y0026054D02*
X0021701Y0026054D01*
X0022373Y0026852D02*
X0024227Y0026852D01*
X0023896Y0027651D02*
X0022704Y0027651D01*
X0023000Y0028449D02*
X0023600Y0028449D01*
X0023600Y0029248D02*
X0023000Y0029248D01*
X0023000Y0030046D02*
X0023600Y0030046D01*
X0023853Y0030845D02*
X0022747Y0030845D01*
X0022417Y0031643D02*
X0024183Y0031643D01*
X0024795Y0032442D02*
X0021805Y0032442D01*
X0021006Y0033240D02*
X0025594Y0033240D01*
X0022081Y0036434D02*
X0074519Y0036434D01*
X0074069Y0037233D02*
X0022531Y0037233D01*
X0022862Y0038032D02*
X0073738Y0038032D01*
X0073600Y0038830D02*
X0023000Y0038830D01*
X0023000Y0039629D02*
X0073600Y0039629D01*
X0073680Y0040427D02*
X0022920Y0040427D01*
X0022590Y0041226D02*
X0074010Y0041226D01*
X0074377Y0042024D02*
X0022223Y0042024D01*
X0021424Y0042823D02*
X0075176Y0042823D01*
X0076450Y0043621D02*
X0020150Y0043621D01*
X0020727Y0045218D02*
X0075873Y0045218D01*
X0074937Y0046017D02*
X0021663Y0046017D01*
X0022358Y0046815D02*
X0074242Y0046815D01*
X0073911Y0047614D02*
X0022689Y0047614D01*
X0023000Y0048412D02*
X0073600Y0048412D01*
X0073600Y0049211D02*
X0023000Y0049211D01*
X0023000Y0050009D02*
X0073600Y0050009D01*
X0073837Y0050808D02*
X0022763Y0050808D01*
X0022432Y0051606D02*
X0074168Y0051606D01*
X0074758Y0052405D02*
X0021842Y0052405D01*
X0021044Y0053203D02*
X0075556Y0053203D01*
X0075317Y0035636D02*
X0021283Y0035636D01*
X0019808Y0034837D02*
X0076792Y0034837D01*
X0075594Y0033240D02*
X0071006Y0033240D01*
X0070962Y0033284D02*
X0069235Y0034000D01*
X0067365Y0034000D01*
X0065638Y0033284D01*
X0064316Y0031962D01*
X0063600Y0030235D01*
X0063600Y0028365D01*
X0064316Y0026638D01*
X0065638Y0025316D01*
X0067365Y0024600D01*
X0069235Y0024600D01*
X0070962Y0025316D01*
X0072284Y0026638D01*
X0073000Y0028365D01*
X0073000Y0030235D01*
X0072284Y0031962D01*
X0070962Y0033284D01*
X0071805Y0032442D02*
X0074795Y0032442D01*
X0074183Y0031643D02*
X0072417Y0031643D01*
X0072747Y0030845D02*
X0073853Y0030845D01*
X0073600Y0030046D02*
X0073000Y0030046D01*
X0073000Y0029248D02*
X0073600Y0029248D01*
X0073600Y0028449D02*
X0073000Y0028449D01*
X0072704Y0027651D02*
X0073896Y0027651D01*
X0074227Y0026852D02*
X0072373Y0026852D01*
X0071701Y0026054D02*
X0074899Y0026054D01*
X0075783Y0025255D02*
X0070817Y0025255D01*
X0065783Y0025255D02*
X0060817Y0025255D01*
X0060962Y0025316D02*
X0062284Y0026638D01*
X0063000Y0028365D01*
X0063000Y0030235D01*
X0062284Y0031962D01*
X0060962Y0033284D01*
X0059235Y0034000D01*
X0057365Y0034000D01*
X0055638Y0033284D01*
X0054316Y0031962D01*
X0053600Y0030235D01*
X0053600Y0028365D01*
X0054316Y0026638D01*
X0055638Y0025316D01*
X0057365Y0024600D01*
X0059235Y0024600D01*
X0060962Y0025316D01*
X0061701Y0026054D02*
X0064899Y0026054D01*
X0064227Y0026852D02*
X0062373Y0026852D01*
X0062704Y0027651D02*
X0063896Y0027651D01*
X0063600Y0028449D02*
X0063000Y0028449D01*
X0063000Y0029248D02*
X0063600Y0029248D01*
X0063600Y0030046D02*
X0063000Y0030046D01*
X0062747Y0030845D02*
X0063853Y0030845D01*
X0064183Y0031643D02*
X0062417Y0031643D01*
X0061805Y0032442D02*
X0064795Y0032442D01*
X0065594Y0033240D02*
X0061006Y0033240D01*
X0055594Y0033240D02*
X0050478Y0033240D01*
X0050659Y0033149D02*
X0050027Y0033470D01*
X0049354Y0033689D01*
X0048700Y0033793D01*
X0048700Y0029700D01*
X0052793Y0029700D01*
X0052689Y0030354D01*
X0052470Y0031027D01*
X0052149Y0031659D01*
X0051732Y0032232D01*
X0051232Y0032732D01*
X0050659Y0033149D01*
X0051522Y0032442D02*
X0054795Y0032442D01*
X0054183Y0031643D02*
X0052156Y0031643D01*
X0052530Y0030845D02*
X0053853Y0030845D01*
X0053600Y0030046D02*
X0052738Y0030046D01*
X0052793Y0028900D02*
X0048700Y0028900D01*
X0048700Y0029700D01*
X0047900Y0029700D01*
X0047900Y0033793D01*
X0047246Y0033689D01*
X0046573Y0033470D01*
X0045941Y0033149D01*
X0045368Y0032732D01*
X0044868Y0032232D01*
X0044451Y0031659D01*
X0044130Y0031027D01*
X0043911Y0030354D01*
X0043807Y0029700D01*
X0047900Y0029700D01*
X0047900Y0028900D01*
X0048700Y0028900D01*
X0048700Y0024807D01*
X0049354Y0024911D01*
X0050027Y0025130D01*
X0050659Y0025451D01*
X0051232Y0025868D01*
X0051732Y0026368D01*
X0052149Y0026941D01*
X0052470Y0027573D01*
X0052689Y0028246D01*
X0052793Y0028900D01*
X0052721Y0028449D02*
X0053600Y0028449D01*
X0053600Y0029248D02*
X0048700Y0029248D01*
X0048700Y0030046D02*
X0047900Y0030046D01*
X0047900Y0029248D02*
X0043000Y0029248D01*
X0043000Y0030046D02*
X0043862Y0030046D01*
X0044070Y0030845D02*
X0042747Y0030845D01*
X0043000Y0030235D02*
X0042284Y0031962D01*
X0040962Y0033284D01*
X0039235Y0034000D01*
X0037365Y0034000D01*
X0035638Y0033284D01*
X0034316Y0031962D01*
X0033600Y0030235D01*
X0033600Y0028365D01*
X0034316Y0026638D01*
X0035638Y0025316D01*
X0037365Y0024600D01*
X0039235Y0024600D01*
X0040962Y0025316D01*
X0042284Y0026638D01*
X0043000Y0028365D01*
X0043000Y0030235D01*
X0042417Y0031643D02*
X0044444Y0031643D01*
X0045078Y0032442D02*
X0041805Y0032442D01*
X0041006Y0033240D02*
X0046122Y0033240D01*
X0047900Y0033240D02*
X0048700Y0033240D01*
X0048700Y0032442D02*
X0047900Y0032442D01*
X0047900Y0031643D02*
X0048700Y0031643D01*
X0048700Y0030845D02*
X0047900Y0030845D01*
X0047900Y0028900D02*
X0043807Y0028900D01*
X0043911Y0028246D01*
X0044130Y0027573D01*
X0044451Y0026941D01*
X0044868Y0026368D01*
X0045368Y0025868D01*
X0045941Y0025451D01*
X0046573Y0025130D01*
X0047246Y0024911D01*
X0047900Y0024807D01*
X0047900Y0028900D01*
X0047900Y0028449D02*
X0048700Y0028449D01*
X0048700Y0027651D02*
X0047900Y0027651D01*
X0047900Y0026852D02*
X0048700Y0026852D01*
X0048700Y0026054D02*
X0047900Y0026054D01*
X0047900Y0025255D02*
X0048700Y0025255D01*
X0050274Y0025255D02*
X0055783Y0025255D01*
X0054899Y0026054D02*
X0051418Y0026054D01*
X0052084Y0026852D02*
X0054227Y0026852D01*
X0053896Y0027651D02*
X0052496Y0027651D01*
X0046326Y0025255D02*
X0040817Y0025255D01*
X0041701Y0026054D02*
X0045182Y0026054D01*
X0044516Y0026852D02*
X0042373Y0026852D01*
X0042704Y0027651D02*
X0044104Y0027651D01*
X0043879Y0028449D02*
X0043000Y0028449D01*
X0035783Y0025255D02*
X0030817Y0025255D01*
X0031701Y0026054D02*
X0034899Y0026054D01*
X0034227Y0026852D02*
X0032373Y0026852D01*
X0032704Y0027651D02*
X0033896Y0027651D01*
X0033600Y0028449D02*
X0033000Y0028449D01*
X0033000Y0029248D02*
X0033600Y0029248D01*
X0033600Y0030046D02*
X0033000Y0030046D01*
X0032747Y0030845D02*
X0033853Y0030845D01*
X0034183Y0031643D02*
X0032417Y0031643D01*
X0031805Y0032442D02*
X0034795Y0032442D01*
X0035594Y0033240D02*
X0031006Y0033240D01*
X0015317Y0035636D02*
X0008200Y0035636D01*
X0008200Y0036434D02*
X0014519Y0036434D01*
X0014069Y0037233D02*
X0008200Y0037233D01*
X0008200Y0038032D02*
X0013738Y0038032D01*
X0013600Y0038830D02*
X0008200Y0038830D01*
X0008200Y0039629D02*
X0013600Y0039629D01*
X0013680Y0040427D02*
X0008200Y0040427D01*
X0008200Y0041226D02*
X0014010Y0041226D01*
X0014377Y0042024D02*
X0008200Y0042024D01*
X0008200Y0042823D02*
X0015176Y0042823D01*
X0016450Y0043621D02*
X0008200Y0043621D01*
X0008200Y0065181D02*
X0015963Y0065181D01*
X0014974Y0065979D02*
X0008200Y0065979D01*
X0008200Y0066778D02*
X0014257Y0066778D01*
X0013927Y0067576D02*
X0008200Y0067576D01*
X0008200Y0068375D02*
X0013600Y0068375D01*
X0013600Y0069173D02*
X0008200Y0069173D01*
X0008200Y0069972D02*
X0013600Y0069972D01*
X0013822Y0070770D02*
X0008200Y0070770D01*
X0008200Y0071569D02*
X0014153Y0071569D01*
X0014721Y0072368D02*
X0008200Y0072368D01*
X0008200Y0073166D02*
X0015519Y0073166D01*
X0015048Y0105905D02*
X0008200Y0105905D01*
X0008200Y0106703D02*
X0014288Y0106703D01*
X0013957Y0107502D02*
X0008200Y0107502D01*
X0008200Y0108301D02*
X0013627Y0108301D01*
X0013600Y0109099D02*
X0008200Y0109099D01*
X0008200Y0109898D02*
X0013600Y0109898D01*
X0013791Y0110696D02*
X0008200Y0110696D01*
X0008200Y0111495D02*
X0014122Y0111495D01*
X0014646Y0112293D02*
X0008200Y0112293D01*
X0008200Y0113092D02*
X0015445Y0113092D01*
X0017100Y0113890D02*
X0008200Y0113890D01*
X0008200Y0114689D02*
X0017151Y0114689D01*
X0015466Y0115487D02*
X0008200Y0115487D01*
X0008200Y0116286D02*
X0014668Y0116286D01*
X0014131Y0117084D02*
X0008200Y0117084D01*
X0008200Y0117883D02*
X0013800Y0117883D01*
X0013600Y0118681D02*
X0008200Y0118681D01*
X0008200Y0119480D02*
X0013600Y0119480D01*
X0013618Y0120278D02*
X0008200Y0120278D01*
X0008200Y0121077D02*
X0013949Y0121077D01*
X0014279Y0121875D02*
X0008200Y0121875D01*
X0008200Y0122674D02*
X0015027Y0122674D01*
X0016091Y0123472D02*
X0008200Y0123472D01*
X0008200Y0124271D02*
X0090969Y0124271D01*
X0090638Y0123472D02*
X0080509Y0123472D01*
X0081573Y0122674D02*
X0090308Y0122674D01*
X0090200Y0121875D02*
X0082321Y0121875D01*
X0082651Y0121077D02*
X0090200Y0121077D01*
X0090200Y0120278D02*
X0082982Y0120278D01*
X0083000Y0119480D02*
X0090493Y0119480D01*
X0090823Y0118681D02*
X0083000Y0118681D01*
X0082800Y0117883D02*
X0091298Y0117883D01*
X0092096Y0117084D02*
X0082469Y0117084D01*
X0081932Y0116286D02*
X0093272Y0116286D01*
X0093800Y0115487D02*
X0081134Y0115487D01*
X0075466Y0115487D02*
X0071134Y0115487D01*
X0071932Y0116286D02*
X0074668Y0116286D01*
X0074131Y0117084D02*
X0072469Y0117084D01*
X0072800Y0117883D02*
X0073800Y0117883D01*
X0073600Y0118681D02*
X0073000Y0118681D01*
X0073000Y0119480D02*
X0073600Y0119480D01*
X0073618Y0120278D02*
X0072982Y0120278D01*
X0072651Y0121077D02*
X0073949Y0121077D01*
X0074279Y0121875D02*
X0072321Y0121875D01*
X0071573Y0122674D02*
X0075027Y0122674D01*
X0076091Y0123472D02*
X0070509Y0123472D01*
X0070368Y0125069D02*
X0076232Y0125069D01*
X0075638Y0125316D02*
X0077365Y0124600D01*
X0079235Y0124600D01*
X0080962Y0125316D01*
X0082284Y0126638D01*
X0083000Y0128365D01*
X0083000Y0130235D01*
X0082284Y0131962D01*
X0080962Y0133284D01*
X0079235Y0134000D01*
X0077365Y0134000D01*
X0075638Y0133284D01*
X0074316Y0131962D01*
X0073600Y0130235D01*
X0073600Y0128365D01*
X0074316Y0126638D01*
X0075638Y0125316D01*
X0075085Y0125868D02*
X0071515Y0125868D01*
X0072296Y0126666D02*
X0074304Y0126666D01*
X0073973Y0127465D02*
X0072627Y0127465D01*
X0072958Y0128263D02*
X0073642Y0128263D01*
X0073600Y0129062D02*
X0073000Y0129062D01*
X0073000Y0129860D02*
X0073600Y0129860D01*
X0073776Y0130659D02*
X0072824Y0130659D01*
X0072494Y0131457D02*
X0074106Y0131457D01*
X0074609Y0132256D02*
X0071991Y0132256D01*
X0071192Y0133054D02*
X0075408Y0133054D01*
X0077010Y0133853D02*
X0069590Y0133853D01*
X0079359Y0134651D02*
X0106323Y0134651D01*
X0105524Y0133853D02*
X0079590Y0133853D01*
X0081192Y0133054D02*
X0104726Y0133054D01*
X0103927Y0132256D02*
X0081991Y0132256D01*
X0082494Y0131457D02*
X0103129Y0131457D01*
X0102330Y0130659D02*
X0082824Y0130659D01*
X0083000Y0129860D02*
X0101532Y0129860D01*
X0100733Y0129062D02*
X0083000Y0129062D01*
X0082958Y0128263D02*
X0099935Y0128263D01*
X0099136Y0127465D02*
X0082627Y0127465D01*
X0082296Y0126666D02*
X0094122Y0126666D01*
X0092448Y0125868D02*
X0081515Y0125868D01*
X0080368Y0125069D02*
X0091650Y0125069D01*
X0097478Y0126666D02*
X0098338Y0126666D01*
X0101599Y0124271D02*
X0102284Y0124271D01*
X0102182Y0124130D02*
X0101796Y0123373D01*
X0101533Y0122565D01*
X0101400Y0121725D01*
X0101400Y0121700D01*
X0106400Y0121700D01*
X0106400Y0126700D01*
X0106375Y0126700D01*
X0105535Y0126567D01*
X0104727Y0126304D01*
X0103970Y0125918D01*
X0103282Y0125419D01*
X0102681Y0124818D01*
X0102182Y0124130D01*
X0101846Y0123472D02*
X0100962Y0123472D01*
X0101292Y0122674D02*
X0101568Y0122674D01*
X0101424Y0121875D02*
X0101400Y0121875D01*
X0101400Y0121077D02*
X0106400Y0121077D01*
X0106400Y0120900D02*
X0101400Y0120900D01*
X0101400Y0120875D01*
X0101533Y0120035D01*
X0101796Y0119227D01*
X0102182Y0118470D01*
X0102681Y0117782D01*
X0103282Y0117181D01*
X0103970Y0116682D01*
X0104727Y0116296D01*
X0105535Y0116033D01*
X0106375Y0115900D01*
X0106400Y0115900D01*
X0106400Y0120900D01*
X0107200Y0120900D01*
X0107200Y0121700D01*
X0112200Y0121700D01*
X0112200Y0121725D01*
X0112067Y0122565D01*
X0111804Y0123373D01*
X0111418Y0124130D01*
X0110919Y0124818D01*
X0110318Y0125419D01*
X0109630Y0125918D01*
X0108873Y0126304D01*
X0108065Y0126567D01*
X0107225Y0126700D01*
X0107200Y0126700D01*
X0107200Y0121700D01*
X0106400Y0121700D01*
X0106400Y0120900D01*
X0106400Y0120278D02*
X0107200Y0120278D01*
X0107200Y0120900D02*
X0107200Y0115900D01*
X0107225Y0115900D01*
X0108065Y0116033D01*
X0108873Y0116296D01*
X0109630Y0116682D01*
X0110318Y0117181D01*
X0110919Y0117782D01*
X0111418Y0118470D01*
X0111804Y0119227D01*
X0112067Y0120035D01*
X0112200Y0120875D01*
X0112200Y0120900D01*
X0107200Y0120900D01*
X0107200Y0121077D02*
X0120400Y0121077D01*
X0120400Y0120900D02*
X0115400Y0120900D01*
X0115400Y0120875D01*
X0115533Y0120035D01*
X0115796Y0119227D01*
X0116182Y0118470D01*
X0116681Y0117782D01*
X0117282Y0117181D01*
X0117970Y0116682D01*
X0118727Y0116296D01*
X0119535Y0116033D01*
X0120375Y0115900D01*
X0120400Y0115900D01*
X0120400Y0120900D01*
X0121200Y0120900D01*
X0121200Y0121700D01*
X0126200Y0121700D01*
X0126200Y0121725D01*
X0126067Y0122565D01*
X0125804Y0123373D01*
X0125418Y0124130D01*
X0124919Y0124818D01*
X0124318Y0125419D01*
X0123630Y0125918D01*
X0122873Y0126304D01*
X0122065Y0126567D01*
X0121225Y0126700D01*
X0121200Y0126700D01*
X0121200Y0121700D01*
X0120400Y0121700D01*
X0120400Y0126700D01*
X0120375Y0126700D01*
X0119535Y0126567D01*
X0118727Y0126304D01*
X0117970Y0125918D01*
X0117282Y0125419D01*
X0116681Y0124818D01*
X0116182Y0124130D01*
X0115796Y0123373D01*
X0115533Y0122565D01*
X0115400Y0121725D01*
X0115400Y0121700D01*
X0120400Y0121700D01*
X0120400Y0120900D01*
X0120400Y0120278D02*
X0121200Y0120278D01*
X0121200Y0120900D02*
X0121200Y0115900D01*
X0121225Y0115900D01*
X0122065Y0116033D01*
X0122873Y0116296D01*
X0123630Y0116682D01*
X0124318Y0117181D01*
X0124919Y0117782D01*
X0125418Y0118470D01*
X0125804Y0119227D01*
X0126067Y0120035D01*
X0126200Y0120875D01*
X0126200Y0120900D01*
X0121200Y0120900D01*
X0121200Y0121077D02*
X0126200Y0121077D01*
X0126176Y0121875D02*
X0126200Y0121875D01*
X0126308Y0122674D02*
X0126032Y0122674D01*
X0125754Y0123472D02*
X0126638Y0123472D01*
X0126969Y0124271D02*
X0125316Y0124271D01*
X0124667Y0125069D02*
X0127650Y0125069D01*
X0128448Y0125868D02*
X0123700Y0125868D01*
X0121438Y0126666D02*
X0130122Y0126666D01*
X0133478Y0126666D02*
X0154300Y0126666D01*
X0154300Y0125868D02*
X0135152Y0125868D01*
X0135950Y0125069D02*
X0154300Y0125069D01*
X0154300Y0124271D02*
X0136631Y0124271D01*
X0136962Y0123472D02*
X0154300Y0123472D01*
X0156300Y0121300D02*
X0131800Y0121300D01*
X0126493Y0119480D02*
X0125886Y0119480D01*
X0126105Y0120278D02*
X0126200Y0120278D01*
X0126823Y0118681D02*
X0125526Y0118681D01*
X0124992Y0117883D02*
X0127298Y0117883D01*
X0128096Y0117084D02*
X0124184Y0117084D01*
X0122842Y0116286D02*
X0129272Y0116286D01*
X0134328Y0116286D02*
X0154300Y0116286D01*
X0154300Y0117084D02*
X0135504Y0117084D01*
X0136302Y0117883D02*
X0154300Y0117883D01*
X0154300Y0118681D02*
X0136777Y0118681D01*
X0121200Y0118681D02*
X0120400Y0118681D01*
X0120400Y0117883D02*
X0121200Y0117883D01*
X0121200Y0117084D02*
X0120400Y0117084D01*
X0120400Y0116286D02*
X0121200Y0116286D01*
X0118758Y0116286D02*
X0108842Y0116286D01*
X0110184Y0117084D02*
X0117416Y0117084D01*
X0116608Y0117883D02*
X0110992Y0117883D01*
X0111526Y0118681D02*
X0116074Y0118681D01*
X0115714Y0119480D02*
X0111886Y0119480D01*
X0112105Y0120278D02*
X0115495Y0120278D01*
X0115424Y0121875D02*
X0112176Y0121875D01*
X0112032Y0122674D02*
X0115568Y0122674D01*
X0115846Y0123472D02*
X0111754Y0123472D01*
X0111316Y0124271D02*
X0116284Y0124271D01*
X0116933Y0125069D02*
X0110667Y0125069D01*
X0109700Y0125868D02*
X0117900Y0125868D01*
X0120162Y0126666D02*
X0107438Y0126666D01*
X0107200Y0126666D02*
X0106400Y0126666D01*
X0106162Y0126666D02*
X0103995Y0126666D01*
X0103900Y0125868D02*
X0103196Y0125868D01*
X0102933Y0125069D02*
X0102398Y0125069D01*
X0104793Y0127465D02*
X0154300Y0127465D01*
X0154300Y0128263D02*
X0105592Y0128263D01*
X0106390Y0129062D02*
X0154300Y0129062D01*
X0154300Y0129860D02*
X0107189Y0129860D01*
X0107987Y0130659D02*
X0154300Y0130659D01*
X0154300Y0131457D02*
X0108786Y0131457D01*
X0109584Y0132256D02*
X0154300Y0132256D01*
X0154300Y0133054D02*
X0110383Y0133054D01*
X0111181Y0133853D02*
X0154300Y0133853D01*
X0154300Y0134651D02*
X0111980Y0134651D01*
X0112778Y0135450D02*
X0154300Y0135450D01*
X0154300Y0136248D02*
X0113577Y0136248D01*
X0114375Y0137047D02*
X0154300Y0137047D01*
X0154300Y0137845D02*
X0115174Y0137845D01*
X0115972Y0138644D02*
X0154300Y0138644D01*
X0154300Y0139442D02*
X0116300Y0139442D01*
X0116300Y0140241D02*
X0154300Y0140241D01*
X0154300Y0141039D02*
X0116300Y0141039D01*
X0116300Y0141838D02*
X0154300Y0141838D01*
X0154300Y0142637D02*
X0116300Y0142637D01*
X0116300Y0143435D02*
X0154300Y0143435D01*
X0154300Y0144234D02*
X0116300Y0144234D01*
X0116300Y0145032D02*
X0154300Y0145032D01*
X0154300Y0145831D02*
X0116300Y0145831D01*
X0116300Y0146629D02*
X0154300Y0146629D01*
X0154300Y0147428D02*
X0116300Y0147428D01*
X0116300Y0148226D02*
X0154300Y0148226D01*
X0154300Y0149025D02*
X0116300Y0149025D01*
X0116300Y0149823D02*
X0154300Y0149823D01*
X0154300Y0150622D02*
X0116300Y0150622D01*
X0119183Y0151420D02*
X0141968Y0151420D01*
X0142095Y0151400D02*
X0142120Y0151400D01*
X0142120Y0156400D01*
X0137120Y0156400D01*
X0137120Y0156375D01*
X0137253Y0155535D01*
X0137516Y0154727D01*
X0137902Y0153970D01*
X0138402Y0153282D01*
X0139003Y0152681D01*
X0139690Y0152182D01*
X0140448Y0151796D01*
X0141256Y0151533D01*
X0142095Y0151400D01*
X0142120Y0151420D02*
X0142920Y0151420D01*
X0142920Y0151400D02*
X0142945Y0151400D01*
X0143785Y0151533D01*
X0144593Y0151796D01*
X0145351Y0152182D01*
X0146038Y0152681D01*
X0146639Y0153282D01*
X0147139Y0153970D01*
X0147525Y0154727D01*
X0147788Y0155535D01*
X0147920Y0156375D01*
X0147920Y0156400D01*
X0142921Y0156400D01*
X0142921Y0157200D01*
X0147920Y0157200D01*
X0147920Y0157225D01*
X0147788Y0158065D01*
X0147525Y0158873D01*
X0147139Y0159630D01*
X0146639Y0160318D01*
X0146038Y0160919D01*
X0145351Y0161418D01*
X0144593Y0161804D01*
X0143785Y0162067D01*
X0142945Y0162200D01*
X0142920Y0162200D01*
X0142920Y0157200D01*
X0142120Y0157200D01*
X0142120Y0156400D01*
X0142920Y0156400D01*
X0142920Y0151400D01*
X0143073Y0151420D02*
X0151417Y0151420D01*
X0150700Y0152219D02*
X0145402Y0152219D01*
X0146374Y0153017D02*
X0150700Y0153017D01*
X0150700Y0153816D02*
X0147027Y0153816D01*
X0147467Y0154614D02*
X0150700Y0154614D01*
X0150700Y0155413D02*
X0147748Y0155413D01*
X0147895Y0156211D02*
X0150700Y0156211D01*
X0150700Y0157010D02*
X0142921Y0157010D01*
X0142920Y0157808D02*
X0142120Y0157808D01*
X0142120Y0157200D02*
X0142120Y0162200D01*
X0142095Y0162200D01*
X0141256Y0162067D01*
X0140448Y0161804D01*
X0139690Y0161418D01*
X0139003Y0160919D01*
X0138402Y0160318D01*
X0137902Y0159630D01*
X0137516Y0158873D01*
X0137253Y0158065D01*
X0137120Y0157225D01*
X0137120Y0157200D01*
X0142120Y0157200D01*
X0142120Y0157010D02*
X0119900Y0157010D01*
X0119900Y0157808D02*
X0137213Y0157808D01*
X0137430Y0158607D02*
X0119900Y0158607D01*
X0119900Y0159405D02*
X0137787Y0159405D01*
X0138319Y0160204D02*
X0119900Y0160204D01*
X0119900Y0161002D02*
X0139117Y0161002D01*
X0140441Y0161801D02*
X0119562Y0161801D01*
X0119900Y0156211D02*
X0137146Y0156211D01*
X0137293Y0155413D02*
X0119900Y0155413D01*
X0119900Y0154614D02*
X0137574Y0154614D01*
X0138014Y0153816D02*
X0119900Y0153816D01*
X0119900Y0153017D02*
X0138667Y0153017D01*
X0139639Y0152219D02*
X0119900Y0152219D01*
X0112300Y0150622D02*
X0082840Y0150622D01*
X0083000Y0149823D02*
X0112300Y0149823D01*
X0112300Y0149025D02*
X0083000Y0149025D01*
X0082942Y0148226D02*
X0112300Y0148226D01*
X0112300Y0147428D02*
X0082612Y0147428D01*
X0082276Y0146629D02*
X0112300Y0146629D01*
X0112300Y0145831D02*
X0081477Y0145831D01*
X0080278Y0145032D02*
X0112300Y0145032D01*
X0112300Y0144234D02*
X0008200Y0144234D01*
X0008200Y0145032D02*
X0016322Y0145032D01*
X0015123Y0145831D02*
X0008200Y0145831D01*
X0008200Y0146629D02*
X0014324Y0146629D01*
X0013988Y0147428D02*
X0008200Y0147428D01*
X0008200Y0148226D02*
X0013658Y0148226D01*
X0013600Y0149025D02*
X0008200Y0149025D01*
X0008200Y0149823D02*
X0013600Y0149823D01*
X0013760Y0150622D02*
X0008200Y0150622D01*
X0008200Y0151420D02*
X0014091Y0151420D01*
X0014572Y0152219D02*
X0008200Y0152219D01*
X0008200Y0153017D02*
X0015370Y0153017D01*
X0016017Y0155413D02*
X0008200Y0155413D01*
X0008200Y0156211D02*
X0015025Y0156211D01*
X0014416Y0157010D02*
X0008200Y0157010D01*
X0008200Y0157808D02*
X0014053Y0157808D01*
X0013854Y0158607D02*
X0008200Y0158607D01*
X0008200Y0159405D02*
X0017900Y0159405D01*
X0017900Y0158607D02*
X0018700Y0158607D01*
X0018700Y0159405D02*
X0073600Y0159405D01*
X0073600Y0158607D02*
X0022746Y0158607D01*
X0022547Y0157808D02*
X0073831Y0157808D01*
X0074161Y0157010D02*
X0022183Y0157010D01*
X0021575Y0156211D02*
X0074742Y0156211D01*
X0075541Y0155413D02*
X0020583Y0155413D01*
X0018700Y0156211D02*
X0017900Y0156211D01*
X0017900Y0157010D02*
X0018700Y0157010D01*
X0018700Y0157808D02*
X0017900Y0157808D01*
X0017900Y0160204D02*
X0018700Y0160204D01*
X0018700Y0161002D02*
X0017900Y0161002D01*
X0017900Y0161801D02*
X0018700Y0161801D01*
X0018700Y0162599D02*
X0017900Y0162599D01*
X0017900Y0163398D02*
X0018700Y0163398D01*
X0020170Y0163398D02*
X0075911Y0163398D01*
X0074952Y0162599D02*
X0021365Y0162599D01*
X0022045Y0161801D02*
X0074249Y0161801D01*
X0073918Y0161002D02*
X0022478Y0161002D01*
X0022713Y0160204D02*
X0073600Y0160204D01*
X0080689Y0163398D02*
X0259400Y0163398D01*
X0259400Y0164196D02*
X0008200Y0164196D01*
X0008200Y0163398D02*
X0016430Y0163398D01*
X0015235Y0162599D02*
X0008200Y0162599D01*
X0008200Y0161801D02*
X0014555Y0161801D01*
X0014122Y0161002D02*
X0008200Y0161002D01*
X0008200Y0160204D02*
X0013887Y0160204D01*
X0008200Y0164995D02*
X0259400Y0164995D01*
X0259400Y0165793D02*
X0008200Y0165793D01*
X0008200Y0166592D02*
X0259400Y0166592D01*
X0259400Y0167390D02*
X0008200Y0167390D01*
X0008200Y0168189D02*
X0259400Y0168189D01*
X0259400Y0168987D02*
X0008200Y0168987D01*
X0008200Y0143435D02*
X0016001Y0143435D01*
X0014990Y0142637D02*
X0008200Y0142637D01*
X0008200Y0141838D02*
X0014264Y0141838D01*
X0013933Y0141039D02*
X0008200Y0141039D01*
X0008200Y0140241D02*
X0013603Y0140241D01*
X0013600Y0139442D02*
X0008200Y0139442D01*
X0008200Y0138644D02*
X0013600Y0138644D01*
X0013815Y0137845D02*
X0008200Y0137845D01*
X0008200Y0137047D02*
X0014146Y0137047D01*
X0014705Y0136248D02*
X0008200Y0136248D01*
X0008200Y0135450D02*
X0015503Y0135450D01*
X0017241Y0134651D02*
X0008200Y0134651D01*
X0008200Y0133853D02*
X0017010Y0133853D01*
X0015408Y0133054D02*
X0008200Y0133054D01*
X0008200Y0132256D02*
X0014609Y0132256D01*
X0014106Y0131457D02*
X0008200Y0131457D01*
X0008200Y0130659D02*
X0013776Y0130659D01*
X0013600Y0129860D02*
X0008200Y0129860D01*
X0008200Y0129062D02*
X0013600Y0129062D01*
X0013642Y0128263D02*
X0008200Y0128263D01*
X0008200Y0127465D02*
X0013973Y0127465D01*
X0014304Y0126666D02*
X0008200Y0126666D01*
X0008200Y0125868D02*
X0015085Y0125868D01*
X0016232Y0125069D02*
X0008200Y0125069D01*
X0070278Y0145032D02*
X0076322Y0145032D01*
X0075123Y0145831D02*
X0071477Y0145831D01*
X0072276Y0146629D02*
X0074324Y0146629D01*
X0073988Y0147428D02*
X0072612Y0147428D01*
X0072942Y0148226D02*
X0073658Y0148226D01*
X0073600Y0149025D02*
X0073000Y0149025D01*
X0073000Y0149823D02*
X0073600Y0149823D01*
X0073760Y0150622D02*
X0072840Y0150622D01*
X0072509Y0151420D02*
X0074091Y0151420D01*
X0074572Y0152219D02*
X0072028Y0152219D01*
X0071230Y0153017D02*
X0075370Y0153017D01*
X0076920Y0153816D02*
X0069680Y0153816D01*
X0081230Y0153017D02*
X0096667Y0153017D01*
X0097639Y0152219D02*
X0082028Y0152219D01*
X0082509Y0151420D02*
X0099968Y0151420D01*
X0100120Y0151420D02*
X0100920Y0151420D01*
X0101073Y0151420D02*
X0109417Y0151420D01*
X0108700Y0152219D02*
X0103402Y0152219D01*
X0104374Y0153017D02*
X0108700Y0153017D01*
X0108700Y0153816D02*
X0105027Y0153816D01*
X0105467Y0154614D02*
X0108700Y0154614D01*
X0108700Y0155413D02*
X0105748Y0155413D01*
X0105895Y0156211D02*
X0108700Y0156211D01*
X0108700Y0157808D02*
X0105828Y0157808D01*
X0105611Y0158607D02*
X0108700Y0158607D01*
X0108700Y0159405D02*
X0105254Y0159405D01*
X0104722Y0160204D02*
X0108700Y0160204D01*
X0108700Y0161002D02*
X0103924Y0161002D01*
X0102600Y0161801D02*
X0109038Y0161801D01*
X0100920Y0161801D02*
X0100120Y0161801D01*
X0100120Y0161002D02*
X0100920Y0161002D01*
X0100920Y0160204D02*
X0100120Y0160204D01*
X0100120Y0159405D02*
X0100920Y0159405D01*
X0100920Y0158607D02*
X0100120Y0158607D01*
X0100120Y0156211D02*
X0100920Y0156211D01*
X0100920Y0155413D02*
X0100120Y0155413D01*
X0100120Y0154614D02*
X0100920Y0154614D01*
X0100920Y0153816D02*
X0100120Y0153816D01*
X0100120Y0153017D02*
X0100920Y0153017D01*
X0100920Y0152219D02*
X0100120Y0152219D01*
X0095213Y0157808D02*
X0082769Y0157808D01*
X0083000Y0158607D02*
X0095430Y0158607D01*
X0095787Y0159405D02*
X0083000Y0159405D01*
X0083000Y0160204D02*
X0096319Y0160204D01*
X0097117Y0161002D02*
X0082682Y0161002D01*
X0082351Y0161801D02*
X0098441Y0161801D01*
X0081648Y0162599D02*
X0259400Y0162599D01*
X0259400Y0161801D02*
X0236562Y0161801D01*
X0236900Y0161463D02*
X0235963Y0162400D01*
X0226637Y0162400D01*
X0225700Y0161463D01*
X0225700Y0152137D01*
X0226637Y0151200D01*
X0235963Y0151200D01*
X0236900Y0152137D01*
X0236900Y0161463D01*
X0236900Y0161002D02*
X0259400Y0161002D01*
X0259400Y0160204D02*
X0236900Y0160204D01*
X0236900Y0159405D02*
X0259400Y0159405D01*
X0259400Y0158607D02*
X0236900Y0158607D01*
X0236900Y0157808D02*
X0259400Y0157808D01*
X0259400Y0157010D02*
X0236900Y0157010D01*
X0236900Y0156211D02*
X0259400Y0156211D01*
X0259400Y0155413D02*
X0236900Y0155413D01*
X0236900Y0154614D02*
X0259400Y0154614D01*
X0259400Y0153816D02*
X0236900Y0153816D01*
X0236900Y0153017D02*
X0259400Y0153017D01*
X0259400Y0152219D02*
X0236900Y0152219D01*
X0236183Y0151420D02*
X0259400Y0151420D01*
X0259400Y0150622D02*
X0158300Y0150622D01*
X0158300Y0149823D02*
X0259400Y0149823D01*
X0259400Y0149025D02*
X0158300Y0149025D01*
X0158300Y0148226D02*
X0259400Y0148226D01*
X0259400Y0147428D02*
X0158300Y0147428D01*
X0158300Y0146629D02*
X0259400Y0146629D01*
X0259400Y0145831D02*
X0158300Y0145831D01*
X0158300Y0145032D02*
X0259400Y0145032D01*
X0259400Y0144234D02*
X0158300Y0144234D01*
X0158300Y0143435D02*
X0259400Y0143435D01*
X0259400Y0142637D02*
X0158300Y0142637D01*
X0158300Y0141838D02*
X0259400Y0141838D01*
X0259400Y0141039D02*
X0158300Y0141039D01*
X0158300Y0140241D02*
X0259400Y0140241D01*
X0259400Y0139442D02*
X0158300Y0139442D01*
X0158300Y0138644D02*
X0259400Y0138644D01*
X0259400Y0137845D02*
X0158300Y0137845D01*
X0158300Y0137047D02*
X0259400Y0137047D01*
X0259400Y0136248D02*
X0158300Y0136248D01*
X0158300Y0135450D02*
X0259400Y0135450D01*
X0259400Y0134651D02*
X0158300Y0134651D01*
X0158300Y0133853D02*
X0259400Y0133853D01*
X0259400Y0133054D02*
X0158300Y0133054D01*
X0158300Y0132256D02*
X0259400Y0132256D01*
X0259400Y0131457D02*
X0158300Y0131457D01*
X0158300Y0130659D02*
X0259400Y0130659D01*
X0259400Y0129860D02*
X0158300Y0129860D01*
X0158300Y0129062D02*
X0259400Y0129062D01*
X0259400Y0128263D02*
X0158300Y0128263D01*
X0158300Y0127465D02*
X0259400Y0127465D01*
X0259400Y0126666D02*
X0158300Y0126666D01*
X0158300Y0125868D02*
X0259400Y0125868D01*
X0259400Y0125069D02*
X0158300Y0125069D01*
X0158300Y0124271D02*
X0259400Y0124271D01*
X0259400Y0123472D02*
X0158300Y0123472D01*
X0158300Y0122674D02*
X0259400Y0122674D01*
X0259400Y0121875D02*
X0158300Y0121875D01*
X0158300Y0121077D02*
X0259400Y0121077D01*
X0259400Y0120278D02*
X0158300Y0120278D01*
X0158300Y0119480D02*
X0259400Y0119480D01*
X0259400Y0118681D02*
X0158300Y0118681D01*
X0158300Y0117883D02*
X0259400Y0117883D01*
X0259400Y0117084D02*
X0158300Y0117084D01*
X0158300Y0116286D02*
X0259400Y0116286D01*
X0259400Y0115487D02*
X0158300Y0115487D01*
X0158300Y0114689D02*
X0259400Y0114689D01*
X0259400Y0113890D02*
X0158300Y0113890D01*
X0158300Y0113092D02*
X0259400Y0113092D01*
X0259400Y0112293D02*
X0158300Y0112293D01*
X0158300Y0111495D02*
X0259400Y0111495D01*
X0259400Y0110696D02*
X0158300Y0110696D01*
X0158300Y0109898D02*
X0259400Y0109898D01*
X0259400Y0109099D02*
X0158300Y0109099D01*
X0158300Y0108301D02*
X0259400Y0108301D01*
X0259400Y0107502D02*
X0158300Y0107502D01*
X0158300Y0106703D02*
X0259400Y0106703D01*
X0259400Y0105905D02*
X0158300Y0105905D01*
X0158300Y0105106D02*
X0259400Y0105106D01*
X0259400Y0104308D02*
X0158300Y0104308D01*
X0158300Y0103509D02*
X0259400Y0103509D01*
X0259400Y0102711D02*
X0158300Y0102711D01*
X0158300Y0101912D02*
X0259400Y0101912D01*
X0259400Y0101114D02*
X0158300Y0101114D01*
X0158300Y0100315D02*
X0259400Y0100315D01*
X0259400Y0099517D02*
X0158300Y0099517D01*
X0158300Y0098718D02*
X0259400Y0098718D01*
X0259400Y0097920D02*
X0158300Y0097920D01*
X0158307Y0097121D02*
X0259400Y0097121D01*
X0259400Y0096323D02*
X0159106Y0096323D01*
X0156300Y0096300D02*
X0156300Y0121300D01*
X0156300Y0156800D01*
X0161900Y0157010D02*
X0172420Y0157010D01*
X0172420Y0157808D02*
X0161900Y0157808D01*
X0161900Y0158607D02*
X0172707Y0158607D01*
X0172420Y0157914D02*
X0172420Y0155686D01*
X0173273Y0153628D01*
X0174848Y0152053D01*
X0176907Y0151200D01*
X0179134Y0151200D01*
X0181193Y0152053D01*
X0182768Y0153628D01*
X0183620Y0155686D01*
X0183620Y0157914D01*
X0182768Y0159972D01*
X0181193Y0161547D01*
X0179134Y0162400D01*
X0176907Y0162400D01*
X0174848Y0161547D01*
X0173273Y0159972D01*
X0172420Y0157914D01*
X0173038Y0159405D02*
X0161900Y0159405D01*
X0161900Y0160204D02*
X0173505Y0160204D01*
X0174303Y0161002D02*
X0161900Y0161002D01*
X0161562Y0161801D02*
X0175460Y0161801D01*
X0180581Y0161801D02*
X0186538Y0161801D01*
X0186200Y0161463D02*
X0187137Y0162400D01*
X0196463Y0162400D01*
X0197400Y0161463D01*
X0197400Y0152137D01*
X0196463Y0151200D01*
X0187137Y0151200D01*
X0186200Y0152137D01*
X0186200Y0161463D01*
X0186200Y0161002D02*
X0181738Y0161002D01*
X0182536Y0160204D02*
X0186200Y0160204D01*
X0186200Y0159405D02*
X0183003Y0159405D01*
X0183333Y0158607D02*
X0186200Y0158607D01*
X0186200Y0157808D02*
X0183620Y0157808D01*
X0183620Y0157010D02*
X0186200Y0157010D01*
X0186200Y0156211D02*
X0183620Y0156211D01*
X0183507Y0155413D02*
X0186200Y0155413D01*
X0186200Y0154614D02*
X0183176Y0154614D01*
X0182846Y0153816D02*
X0186200Y0153816D01*
X0186200Y0153017D02*
X0182157Y0153017D01*
X0181359Y0152219D02*
X0186200Y0152219D01*
X0186917Y0151420D02*
X0179666Y0151420D01*
X0176375Y0151420D02*
X0161183Y0151420D01*
X0161900Y0152219D02*
X0174682Y0152219D01*
X0173884Y0153017D02*
X0161900Y0153017D01*
X0161900Y0153816D02*
X0173195Y0153816D01*
X0172864Y0154614D02*
X0161900Y0154614D01*
X0161900Y0155413D02*
X0172534Y0155413D01*
X0172420Y0156211D02*
X0161900Y0156211D01*
X0150700Y0157808D02*
X0147828Y0157808D01*
X0147611Y0158607D02*
X0150700Y0158607D01*
X0150700Y0159405D02*
X0147254Y0159405D01*
X0146722Y0160204D02*
X0150700Y0160204D01*
X0150700Y0161002D02*
X0145924Y0161002D01*
X0144600Y0161801D02*
X0151038Y0161801D01*
X0142920Y0161801D02*
X0142120Y0161801D01*
X0142120Y0161002D02*
X0142920Y0161002D01*
X0142920Y0160204D02*
X0142120Y0160204D01*
X0142120Y0159405D02*
X0142920Y0159405D01*
X0142920Y0158607D02*
X0142120Y0158607D01*
X0142120Y0156211D02*
X0142920Y0156211D01*
X0142920Y0155413D02*
X0142120Y0155413D01*
X0142120Y0154614D02*
X0142920Y0154614D01*
X0142920Y0153816D02*
X0142120Y0153816D01*
X0142120Y0153017D02*
X0142920Y0153017D01*
X0142920Y0152219D02*
X0142120Y0152219D01*
X0112300Y0143435D02*
X0080599Y0143435D01*
X0081610Y0142637D02*
X0112300Y0142637D01*
X0112300Y0141838D02*
X0082336Y0141838D01*
X0082667Y0141039D02*
X0112300Y0141039D01*
X0111913Y0140241D02*
X0082997Y0140241D01*
X0083000Y0139442D02*
X0111114Y0139442D01*
X0110316Y0138644D02*
X0083000Y0138644D01*
X0082785Y0137845D02*
X0109517Y0137845D01*
X0108719Y0137047D02*
X0082454Y0137047D01*
X0081895Y0136248D02*
X0107920Y0136248D01*
X0107121Y0135450D02*
X0081097Y0135450D01*
X0101400Y0120278D02*
X0101495Y0120278D01*
X0101714Y0119480D02*
X0101107Y0119480D01*
X0100777Y0118681D02*
X0102074Y0118681D01*
X0102608Y0117883D02*
X0100302Y0117883D01*
X0099504Y0117084D02*
X0103416Y0117084D01*
X0104758Y0116286D02*
X0098328Y0116286D01*
X0097800Y0115487D02*
X0154300Y0115487D01*
X0154300Y0114689D02*
X0097800Y0114689D01*
X0097800Y0113890D02*
X0154300Y0113890D01*
X0154300Y0113092D02*
X0097800Y0113092D01*
X0097800Y0112293D02*
X0154300Y0112293D01*
X0154300Y0111495D02*
X0097800Y0111495D01*
X0097800Y0110696D02*
X0099861Y0110696D01*
X0099035Y0109898D02*
X0097800Y0109898D01*
X0097800Y0109099D02*
X0098310Y0109099D01*
X0097979Y0108301D02*
X0097800Y0108301D01*
X0106400Y0116286D02*
X0107200Y0116286D01*
X0107200Y0117084D02*
X0106400Y0117084D01*
X0106400Y0117883D02*
X0107200Y0117883D01*
X0107200Y0118681D02*
X0106400Y0118681D01*
X0106400Y0119480D02*
X0107200Y0119480D01*
X0107200Y0121875D02*
X0106400Y0121875D01*
X0106400Y0122674D02*
X0107200Y0122674D01*
X0107200Y0123472D02*
X0106400Y0123472D01*
X0106400Y0124271D02*
X0107200Y0124271D01*
X0107200Y0125069D02*
X0106400Y0125069D01*
X0106400Y0125868D02*
X0107200Y0125868D01*
X0120400Y0125868D02*
X0121200Y0125868D01*
X0121200Y0126666D02*
X0120400Y0126666D01*
X0120400Y0125069D02*
X0121200Y0125069D01*
X0121200Y0124271D02*
X0120400Y0124271D01*
X0120400Y0123472D02*
X0121200Y0123472D01*
X0121200Y0122674D02*
X0120400Y0122674D01*
X0120400Y0121875D02*
X0121200Y0121875D01*
X0121200Y0119480D02*
X0120400Y0119480D01*
X0112739Y0110696D02*
X0154300Y0110696D01*
X0154300Y0109898D02*
X0113565Y0109898D01*
X0114290Y0109099D02*
X0154300Y0109099D01*
X0154300Y0108301D02*
X0114621Y0108301D01*
X0114952Y0107502D02*
X0154300Y0107502D01*
X0154300Y0106703D02*
X0115024Y0106703D01*
X0115024Y0105905D02*
X0120366Y0105905D01*
X0119244Y0105106D02*
X0114955Y0105106D01*
X0114625Y0104308D02*
X0118445Y0104308D01*
X0118065Y0103509D02*
X0114294Y0103509D01*
X0113574Y0102711D02*
X0117735Y0102711D01*
X0117576Y0101912D02*
X0112759Y0101912D01*
X0111730Y0101114D02*
X0117576Y0101114D01*
X0117576Y0100315D02*
X0113147Y0100315D01*
X0113946Y0099517D02*
X0117889Y0099517D01*
X0118220Y0098718D02*
X0114448Y0098718D01*
X0114779Y0097920D02*
X0118817Y0097920D01*
X0119616Y0097121D02*
X0115024Y0097121D01*
X0115024Y0096323D02*
X0121264Y0096323D01*
X0119662Y0095524D02*
X0115024Y0095524D01*
X0114798Y0094726D02*
X0118863Y0094726D01*
X0118239Y0093927D02*
X0114467Y0093927D01*
X0113991Y0093129D02*
X0117908Y0093129D01*
X0117577Y0092330D02*
X0114308Y0092330D01*
X0115284Y0091532D02*
X0117576Y0091532D01*
X0117576Y0090733D02*
X0116260Y0090733D01*
X0117235Y0089935D02*
X0117716Y0089935D01*
X0117313Y0087287D02*
X0106300Y0096300D01*
X0126300Y0091300D02*
X0161300Y0091300D01*
X0186300Y0091300D01*
X0211300Y0091300D01*
X0236300Y0091300D01*
X0231784Y0089136D02*
X0215816Y0089136D01*
X0215409Y0088338D02*
X0232191Y0088338D01*
X0232990Y0087539D02*
X0214610Y0087539D01*
X0213359Y0086741D02*
X0234241Y0086741D01*
X0238359Y0086741D02*
X0259400Y0086741D01*
X0259400Y0087539D02*
X0239610Y0087539D01*
X0240409Y0088338D02*
X0259400Y0088338D01*
X0259400Y0089136D02*
X0240816Y0089136D01*
X0241146Y0089935D02*
X0259400Y0089935D01*
X0259400Y0090733D02*
X0241300Y0090733D01*
X0241300Y0091532D02*
X0259400Y0091532D01*
X0259400Y0092330D02*
X0241285Y0092330D01*
X0240954Y0093129D02*
X0259400Y0093129D01*
X0259400Y0093927D02*
X0240624Y0093927D01*
X0239945Y0094726D02*
X0259400Y0094726D01*
X0259400Y0095524D02*
X0239147Y0095524D01*
X0233453Y0095524D02*
X0214147Y0095524D01*
X0214945Y0094726D02*
X0232655Y0094726D01*
X0231976Y0093927D02*
X0215624Y0093927D01*
X0208453Y0095524D02*
X0189147Y0095524D01*
X0189945Y0094726D02*
X0207655Y0094726D01*
X0206976Y0093927D02*
X0190624Y0093927D01*
X0190816Y0089136D02*
X0206784Y0089136D01*
X0207191Y0088338D02*
X0190409Y0088338D01*
X0189610Y0087539D02*
X0207990Y0087539D01*
X0209241Y0086741D02*
X0188359Y0086741D01*
X0184241Y0086741D02*
X0163359Y0086741D01*
X0164610Y0087539D02*
X0182990Y0087539D01*
X0182191Y0088338D02*
X0165409Y0088338D01*
X0165816Y0089136D02*
X0181784Y0089136D01*
X0181976Y0093927D02*
X0165624Y0093927D01*
X0164945Y0094726D02*
X0182655Y0094726D01*
X0183453Y0095524D02*
X0164147Y0095524D01*
X0161300Y0091300D02*
X0156300Y0096300D01*
X0151300Y0101300D02*
X0126300Y0101300D01*
X0132234Y0105905D02*
X0154300Y0105905D01*
X0154300Y0105106D02*
X0133356Y0105106D01*
X0134155Y0104308D02*
X0149100Y0104308D01*
X0148301Y0103509D02*
X0134535Y0103509D01*
X0153500Y0104308D02*
X0154300Y0104308D01*
X0154299Y0103509D02*
X0154300Y0103509D01*
X0156784Y0089136D02*
X0134553Y0089136D01*
X0134200Y0088338D02*
X0157191Y0088338D01*
X0157990Y0087539D02*
X0133402Y0087539D01*
X0132345Y0086741D02*
X0159241Y0086741D01*
X0140741Y0073965D02*
X0259400Y0073965D01*
X0259400Y0074763D02*
X0139548Y0074763D01*
X0138355Y0075562D02*
X0259400Y0075562D01*
X0259400Y0076360D02*
X0137162Y0076360D01*
X0135968Y0077159D02*
X0259400Y0077159D01*
X0259400Y0077957D02*
X0134798Y0077957D01*
X0134396Y0078756D02*
X0259400Y0078756D01*
X0259400Y0079554D02*
X0134727Y0079554D01*
X0135024Y0080353D02*
X0259400Y0080353D01*
X0259400Y0081151D02*
X0135024Y0081151D01*
X0135024Y0081950D02*
X0259400Y0081950D01*
X0259400Y0082748D02*
X0134850Y0082748D01*
X0134519Y0083547D02*
X0259400Y0083547D01*
X0259400Y0084345D02*
X0134117Y0084345D01*
X0133319Y0085144D02*
X0259400Y0085144D01*
X0259400Y0085942D02*
X0132144Y0085942D01*
X0115313Y0081151D02*
X0111640Y0081151D01*
X0131917Y0066778D02*
X0176911Y0066778D01*
X0176379Y0067576D02*
X0133156Y0067576D01*
X0133871Y0068375D02*
X0175846Y0068375D01*
X0177443Y0065979D02*
X0132055Y0065979D01*
X0133282Y0065181D02*
X0177976Y0065181D01*
X0178508Y0064382D02*
X0134080Y0064382D01*
X0134504Y0063584D02*
X0179040Y0063584D01*
X0179573Y0062785D02*
X0134834Y0062785D01*
X0135024Y0061987D02*
X0180105Y0061987D01*
X0180637Y0061188D02*
X0135024Y0061188D01*
X0135024Y0060390D02*
X0181170Y0060390D01*
X0181702Y0059591D02*
X0134742Y0059591D01*
X0134411Y0058793D02*
X0182234Y0058793D01*
X0182767Y0057994D02*
X0133857Y0057994D01*
X0133058Y0057196D02*
X0183299Y0057196D01*
X0183831Y0056397D02*
X0131515Y0056397D01*
X0132864Y0055599D02*
X0158613Y0055599D01*
X0157729Y0054800D02*
X0133662Y0054800D01*
X0134331Y0054002D02*
X0157007Y0054002D01*
X0156676Y0053203D02*
X0134661Y0053203D01*
X0134992Y0052405D02*
X0156346Y0052405D01*
X0156300Y0051606D02*
X0135024Y0051606D01*
X0135024Y0050808D02*
X0156300Y0050808D01*
X0156423Y0050009D02*
X0134915Y0050009D01*
X0134584Y0049211D02*
X0156753Y0049211D01*
X0157117Y0048412D02*
X0134254Y0048412D01*
X0163987Y0055599D02*
X0168613Y0055599D01*
X0167729Y0054800D02*
X0164871Y0054800D01*
X0165593Y0054002D02*
X0167007Y0054002D01*
X0166676Y0053203D02*
X0165924Y0053203D01*
X0166254Y0052405D02*
X0166346Y0052405D01*
X0166300Y0052295D02*
X0166300Y0050305D01*
X0166300Y0052295D01*
X0166300Y0051606D02*
X0166300Y0051606D01*
X0166300Y0050808D02*
X0166300Y0050808D01*
X0166300Y0050305D02*
X0165539Y0048468D01*
X0165371Y0048300D01*
X0167229Y0048300D01*
X0167061Y0048468D01*
X0166300Y0050305D01*
X0166177Y0050009D02*
X0166423Y0050009D01*
X0166753Y0049211D02*
X0165847Y0049211D01*
X0165483Y0048412D02*
X0167117Y0048412D01*
X0175483Y0048412D02*
X0182117Y0048412D01*
X0181753Y0049211D02*
X0175847Y0049211D01*
X0176177Y0050009D02*
X0181423Y0050009D01*
X0181300Y0050808D02*
X0176300Y0050808D01*
X0176300Y0051606D02*
X0181300Y0051606D01*
X0181346Y0052405D02*
X0176254Y0052405D01*
X0175924Y0053203D02*
X0181676Y0053203D01*
X0182007Y0054002D02*
X0175593Y0054002D01*
X0174871Y0054800D02*
X0182729Y0054800D01*
X0183613Y0055599D02*
X0173987Y0055599D01*
X0198987Y0055599D02*
X0208613Y0055599D01*
X0207729Y0054800D02*
X0199871Y0054800D01*
X0200593Y0054002D02*
X0207007Y0054002D01*
X0213987Y0055599D02*
X0218613Y0055599D01*
X0217729Y0054800D02*
X0214871Y0054800D01*
X0215593Y0054002D02*
X0217007Y0054002D01*
X0216676Y0053203D02*
X0215924Y0053203D01*
X0216254Y0052405D02*
X0216346Y0052405D01*
X0216300Y0051606D02*
X0216300Y0051606D01*
X0216300Y0050808D02*
X0216300Y0050808D01*
X0216177Y0050009D02*
X0216423Y0050009D01*
X0216753Y0049211D02*
X0215847Y0049211D01*
X0215483Y0048412D02*
X0217117Y0048412D01*
X0217915Y0047614D02*
X0214685Y0047614D01*
X0213538Y0046815D02*
X0219062Y0046815D01*
X0251094Y0010882D02*
X0259400Y0010882D01*
X0259400Y0010084D02*
X0250952Y0010084D01*
X0250661Y0009285D02*
X0259400Y0009285D01*
X0259400Y0008487D02*
X0250189Y0008487D01*
X0134742Y0073166D02*
X0134473Y0073166D01*
X0098497Y0033240D02*
X0081006Y0033240D01*
X0081805Y0032442D02*
X0099295Y0032442D01*
X0100490Y0031643D02*
X0082417Y0031643D01*
X0196683Y0151420D02*
X0215875Y0151420D01*
X0216407Y0151200D02*
X0218634Y0151200D01*
X0220693Y0152053D01*
X0222268Y0153628D01*
X0223120Y0155686D01*
X0223120Y0157914D01*
X0222268Y0159972D01*
X0220693Y0161547D01*
X0218634Y0162400D01*
X0216407Y0162400D01*
X0214348Y0161547D01*
X0212773Y0159972D01*
X0211920Y0157914D01*
X0211920Y0155686D01*
X0212773Y0153628D01*
X0214348Y0152053D01*
X0216407Y0151200D01*
X0214182Y0152219D02*
X0197400Y0152219D01*
X0197400Y0153017D02*
X0213384Y0153017D01*
X0212695Y0153816D02*
X0197400Y0153816D01*
X0197400Y0154614D02*
X0212364Y0154614D01*
X0212034Y0155413D02*
X0197400Y0155413D01*
X0197400Y0156211D02*
X0211920Y0156211D01*
X0211920Y0157010D02*
X0197400Y0157010D01*
X0197400Y0157808D02*
X0211920Y0157808D01*
X0212207Y0158607D02*
X0197400Y0158607D01*
X0197400Y0159405D02*
X0212538Y0159405D01*
X0213005Y0160204D02*
X0197400Y0160204D01*
X0197400Y0161002D02*
X0213803Y0161002D01*
X0214960Y0161801D02*
X0197062Y0161801D01*
X0220081Y0161801D02*
X0226038Y0161801D01*
X0225700Y0161002D02*
X0221238Y0161002D01*
X0222036Y0160204D02*
X0225700Y0160204D01*
X0225700Y0159405D02*
X0222503Y0159405D01*
X0222833Y0158607D02*
X0225700Y0158607D01*
X0225700Y0157808D02*
X0223120Y0157808D01*
X0223120Y0157010D02*
X0225700Y0157010D01*
X0225700Y0156211D02*
X0223120Y0156211D01*
X0223007Y0155413D02*
X0225700Y0155413D01*
X0225700Y0154614D02*
X0222676Y0154614D01*
X0222346Y0153816D02*
X0225700Y0153816D01*
X0225700Y0153017D02*
X0221657Y0153017D01*
X0220859Y0152219D02*
X0225700Y0152219D01*
X0226417Y0151420D02*
X0219166Y0151420D01*
D16*
X0151300Y0101300D03*
M02*
