G75*
%MOIN*%
%OFA0B0*%
%FSLAX25Y25*%
%IPPOS*%
%LPD*%
%AMOC8*
5,1,8,0,0,1.08239X$1,22.5*
%
%ADD10C,0.00300*%
%ADD11C,0.00100*%
%ADD12C,0.00600*%
%ADD13C,0.00400*%
%ADD14R,0.06594X0.74606*%
%ADD15C,0.00800*%
%ADD16C,0.01000*%
%ADD17R,0.10000X0.02000*%
%ADD18R,0.03000X0.07500*%
D10*
X0084950Y0037950D02*
X0085594Y0037950D01*
X0085272Y0037950D02*
X0085272Y0040850D01*
X0084950Y0040850D02*
X0085594Y0040850D01*
X0086867Y0040850D02*
X0088478Y0037950D01*
X0088478Y0040850D01*
X0086867Y0040850D02*
X0086867Y0037950D01*
X0089843Y0038594D02*
X0091454Y0038594D01*
X0090970Y0037950D02*
X0090970Y0039239D01*
X0089843Y0038594D02*
X0090487Y0040850D01*
X0090558Y0047950D02*
X0090558Y0050850D01*
X0091364Y0050850D01*
X0091413Y0050848D01*
X0091462Y0050842D01*
X0091511Y0050833D01*
X0091558Y0050820D01*
X0091605Y0050803D01*
X0091650Y0050783D01*
X0091693Y0050760D01*
X0091735Y0050733D01*
X0091774Y0050703D01*
X0091811Y0050670D01*
X0091845Y0050634D01*
X0091876Y0050596D01*
X0091905Y0050556D01*
X0091930Y0050514D01*
X0091952Y0050469D01*
X0091970Y0050424D01*
X0091985Y0050377D01*
X0091996Y0050329D01*
X0092004Y0050280D01*
X0092008Y0050231D01*
X0092008Y0050181D01*
X0092004Y0050132D01*
X0091996Y0050083D01*
X0091985Y0050035D01*
X0091970Y0049988D01*
X0091952Y0049943D01*
X0091930Y0049898D01*
X0091905Y0049856D01*
X0091876Y0049816D01*
X0091845Y0049778D01*
X0091811Y0049742D01*
X0091774Y0049709D01*
X0091735Y0049679D01*
X0091693Y0049652D01*
X0091650Y0049629D01*
X0091605Y0049609D01*
X0091558Y0049592D01*
X0091511Y0049579D01*
X0091462Y0049570D01*
X0091413Y0049564D01*
X0091364Y0049562D01*
X0091364Y0049561D02*
X0090558Y0049561D01*
X0091364Y0049562D02*
X0091419Y0049560D01*
X0091474Y0049554D01*
X0091528Y0049545D01*
X0091581Y0049532D01*
X0091634Y0049515D01*
X0091685Y0049495D01*
X0091735Y0049472D01*
X0091783Y0049445D01*
X0091829Y0049414D01*
X0091873Y0049381D01*
X0091914Y0049345D01*
X0091953Y0049306D01*
X0091989Y0049265D01*
X0092022Y0049221D01*
X0092053Y0049175D01*
X0092080Y0049127D01*
X0092103Y0049077D01*
X0092123Y0049026D01*
X0092140Y0048973D01*
X0092153Y0048920D01*
X0092162Y0048866D01*
X0092168Y0048811D01*
X0092170Y0048756D01*
X0092168Y0048701D01*
X0092162Y0048646D01*
X0092153Y0048592D01*
X0092140Y0048539D01*
X0092123Y0048486D01*
X0092103Y0048435D01*
X0092080Y0048385D01*
X0092053Y0048337D01*
X0092022Y0048291D01*
X0091989Y0048247D01*
X0091953Y0048206D01*
X0091914Y0048167D01*
X0091873Y0048131D01*
X0091829Y0048098D01*
X0091783Y0048067D01*
X0091735Y0048040D01*
X0091685Y0048017D01*
X0091634Y0047997D01*
X0091581Y0047980D01*
X0091528Y0047967D01*
X0091474Y0047958D01*
X0091419Y0047952D01*
X0091364Y0047950D01*
X0090558Y0047950D01*
X0089051Y0047950D02*
X0089051Y0050850D01*
X0087440Y0050850D02*
X0087440Y0047950D01*
X0086239Y0047950D02*
X0084950Y0047950D01*
X0084950Y0050850D01*
X0086239Y0050850D01*
X0087440Y0050850D02*
X0089051Y0047950D01*
X0085917Y0049561D02*
X0084950Y0049561D01*
X0084950Y0057950D02*
X0085594Y0057950D01*
X0085272Y0057950D02*
X0085272Y0060850D01*
X0084950Y0060850D02*
X0085594Y0060850D01*
X0086867Y0060850D02*
X0088478Y0057950D01*
X0088478Y0060850D01*
X0089843Y0060850D02*
X0090809Y0060850D01*
X0090858Y0060848D01*
X0090907Y0060842D01*
X0090956Y0060833D01*
X0091003Y0060820D01*
X0091050Y0060803D01*
X0091095Y0060783D01*
X0091138Y0060760D01*
X0091180Y0060733D01*
X0091219Y0060703D01*
X0091256Y0060670D01*
X0091290Y0060634D01*
X0091321Y0060596D01*
X0091350Y0060556D01*
X0091375Y0060514D01*
X0091397Y0060469D01*
X0091415Y0060424D01*
X0091430Y0060377D01*
X0091441Y0060329D01*
X0091449Y0060280D01*
X0091453Y0060231D01*
X0091453Y0060181D01*
X0091449Y0060132D01*
X0091441Y0060083D01*
X0091430Y0060035D01*
X0091415Y0059988D01*
X0091397Y0059943D01*
X0091375Y0059898D01*
X0091350Y0059856D01*
X0091321Y0059816D01*
X0091290Y0059778D01*
X0091256Y0059742D01*
X0091219Y0059709D01*
X0091180Y0059679D01*
X0091138Y0059652D01*
X0091095Y0059629D01*
X0091050Y0059609D01*
X0091003Y0059592D01*
X0090956Y0059579D01*
X0090907Y0059570D01*
X0090858Y0059564D01*
X0090809Y0059562D01*
X0090809Y0059561D02*
X0090165Y0059561D01*
X0090648Y0059562D02*
X0090703Y0059560D01*
X0090758Y0059554D01*
X0090812Y0059545D01*
X0090865Y0059532D01*
X0090918Y0059515D01*
X0090969Y0059495D01*
X0091019Y0059472D01*
X0091067Y0059445D01*
X0091113Y0059414D01*
X0091157Y0059381D01*
X0091198Y0059345D01*
X0091237Y0059306D01*
X0091273Y0059265D01*
X0091306Y0059221D01*
X0091337Y0059175D01*
X0091364Y0059127D01*
X0091387Y0059077D01*
X0091407Y0059026D01*
X0091424Y0058973D01*
X0091437Y0058920D01*
X0091446Y0058866D01*
X0091452Y0058811D01*
X0091454Y0058756D01*
X0091452Y0058701D01*
X0091446Y0058646D01*
X0091437Y0058592D01*
X0091424Y0058539D01*
X0091407Y0058486D01*
X0091387Y0058435D01*
X0091364Y0058385D01*
X0091337Y0058337D01*
X0091306Y0058291D01*
X0091273Y0058247D01*
X0091237Y0058206D01*
X0091198Y0058167D01*
X0091157Y0058131D01*
X0091113Y0058098D01*
X0091067Y0058067D01*
X0091019Y0058040D01*
X0090969Y0058017D01*
X0090918Y0057997D01*
X0090865Y0057980D01*
X0090812Y0057967D01*
X0090758Y0057958D01*
X0090703Y0057952D01*
X0090648Y0057950D01*
X0089843Y0057950D01*
X0086867Y0057950D02*
X0086867Y0060850D01*
X0086867Y0067950D02*
X0086867Y0070850D01*
X0088478Y0067950D01*
X0088478Y0070850D01*
X0091212Y0069561D02*
X0091249Y0069598D01*
X0091283Y0069638D01*
X0091315Y0069680D01*
X0091343Y0069725D01*
X0091369Y0069771D01*
X0091391Y0069818D01*
X0091410Y0069867D01*
X0091426Y0069917D01*
X0091438Y0069968D01*
X0091447Y0070020D01*
X0091452Y0070072D01*
X0091454Y0070125D01*
X0091212Y0069561D02*
X0089843Y0067950D01*
X0091454Y0067950D01*
X0089843Y0070206D02*
X0089863Y0070261D01*
X0089886Y0070315D01*
X0089913Y0070367D01*
X0089943Y0070417D01*
X0089975Y0070466D01*
X0090011Y0070512D01*
X0090050Y0070556D01*
X0090091Y0070597D01*
X0090135Y0070636D01*
X0090181Y0070672D01*
X0090230Y0070705D01*
X0090280Y0070735D01*
X0090332Y0070761D01*
X0090386Y0070785D01*
X0090441Y0070804D01*
X0090497Y0070821D01*
X0090554Y0070833D01*
X0090612Y0070843D01*
X0090670Y0070848D01*
X0090729Y0070850D01*
X0090781Y0070848D01*
X0090832Y0070843D01*
X0090883Y0070833D01*
X0090933Y0070821D01*
X0090982Y0070804D01*
X0091030Y0070784D01*
X0091076Y0070761D01*
X0091121Y0070735D01*
X0091163Y0070705D01*
X0091204Y0070673D01*
X0091242Y0070638D01*
X0091277Y0070600D01*
X0091309Y0070559D01*
X0091339Y0070517D01*
X0091365Y0070472D01*
X0091388Y0070426D01*
X0091408Y0070378D01*
X0091425Y0070329D01*
X0091437Y0070279D01*
X0091447Y0070228D01*
X0091452Y0070177D01*
X0091454Y0070125D01*
X0085594Y0070850D02*
X0084950Y0070850D01*
X0085272Y0070850D02*
X0085272Y0067950D01*
X0084950Y0067950D02*
X0085594Y0067950D01*
X0084950Y0077950D02*
X0084950Y0080850D01*
X0086239Y0080850D01*
X0087440Y0080850D02*
X0089051Y0077950D01*
X0089051Y0080850D01*
X0087440Y0080850D02*
X0087440Y0077950D01*
X0086239Y0077950D02*
X0084950Y0077950D01*
X0084950Y0079561D02*
X0085917Y0079561D01*
X0090255Y0077950D02*
X0091221Y0080850D01*
X0092188Y0077950D01*
X0091946Y0078675D02*
X0090496Y0078675D01*
X0059949Y0104850D02*
X0058338Y0104850D01*
X0059707Y0106461D01*
X0059224Y0107750D02*
X0059165Y0107748D01*
X0059107Y0107743D01*
X0059049Y0107733D01*
X0058992Y0107721D01*
X0058936Y0107704D01*
X0058881Y0107685D01*
X0058827Y0107661D01*
X0058775Y0107635D01*
X0058725Y0107605D01*
X0058676Y0107572D01*
X0058630Y0107536D01*
X0058586Y0107497D01*
X0058545Y0107456D01*
X0058506Y0107412D01*
X0058470Y0107366D01*
X0058438Y0107317D01*
X0058408Y0107267D01*
X0058381Y0107215D01*
X0058358Y0107161D01*
X0058338Y0107106D01*
X0059707Y0106461D02*
X0059744Y0106498D01*
X0059778Y0106538D01*
X0059810Y0106580D01*
X0059838Y0106625D01*
X0059864Y0106671D01*
X0059886Y0106718D01*
X0059905Y0106767D01*
X0059921Y0106817D01*
X0059933Y0106868D01*
X0059942Y0106920D01*
X0059947Y0106972D01*
X0059949Y0107025D01*
X0059947Y0107077D01*
X0059942Y0107128D01*
X0059932Y0107179D01*
X0059920Y0107229D01*
X0059903Y0107278D01*
X0059883Y0107326D01*
X0059860Y0107372D01*
X0059834Y0107417D01*
X0059804Y0107459D01*
X0059772Y0107500D01*
X0059737Y0107538D01*
X0059699Y0107573D01*
X0059658Y0107605D01*
X0059616Y0107635D01*
X0059571Y0107661D01*
X0059525Y0107684D01*
X0059477Y0107704D01*
X0059428Y0107721D01*
X0059378Y0107733D01*
X0059327Y0107743D01*
X0059276Y0107748D01*
X0059224Y0107750D01*
X0057208Y0105011D02*
X0057208Y0104850D01*
X0057047Y0104850D01*
X0057047Y0105011D01*
X0057208Y0105011D01*
X0055112Y0104850D02*
X0054306Y0104850D01*
X0055112Y0104850D02*
X0055167Y0104852D01*
X0055222Y0104858D01*
X0055276Y0104867D01*
X0055329Y0104880D01*
X0055382Y0104897D01*
X0055433Y0104917D01*
X0055483Y0104940D01*
X0055531Y0104967D01*
X0055577Y0104998D01*
X0055621Y0105031D01*
X0055662Y0105067D01*
X0055701Y0105106D01*
X0055737Y0105147D01*
X0055770Y0105191D01*
X0055801Y0105237D01*
X0055828Y0105285D01*
X0055851Y0105335D01*
X0055871Y0105386D01*
X0055888Y0105439D01*
X0055901Y0105492D01*
X0055910Y0105546D01*
X0055916Y0105601D01*
X0055918Y0105656D01*
X0055916Y0105711D01*
X0055910Y0105766D01*
X0055901Y0105820D01*
X0055888Y0105873D01*
X0055871Y0105926D01*
X0055851Y0105977D01*
X0055828Y0106027D01*
X0055801Y0106075D01*
X0055770Y0106121D01*
X0055737Y0106165D01*
X0055701Y0106206D01*
X0055662Y0106245D01*
X0055621Y0106281D01*
X0055577Y0106314D01*
X0055531Y0106345D01*
X0055483Y0106372D01*
X0055433Y0106395D01*
X0055382Y0106415D01*
X0055329Y0106432D01*
X0055276Y0106445D01*
X0055222Y0106454D01*
X0055167Y0106460D01*
X0055112Y0106462D01*
X0055273Y0106461D02*
X0054628Y0106461D01*
X0055273Y0106462D02*
X0055322Y0106464D01*
X0055371Y0106470D01*
X0055420Y0106479D01*
X0055467Y0106492D01*
X0055514Y0106509D01*
X0055559Y0106529D01*
X0055602Y0106552D01*
X0055644Y0106579D01*
X0055683Y0106609D01*
X0055720Y0106642D01*
X0055754Y0106678D01*
X0055785Y0106716D01*
X0055814Y0106756D01*
X0055839Y0106798D01*
X0055861Y0106843D01*
X0055879Y0106888D01*
X0055894Y0106935D01*
X0055905Y0106983D01*
X0055913Y0107032D01*
X0055917Y0107081D01*
X0055917Y0107131D01*
X0055913Y0107180D01*
X0055905Y0107229D01*
X0055894Y0107277D01*
X0055879Y0107324D01*
X0055861Y0107369D01*
X0055839Y0107414D01*
X0055814Y0107456D01*
X0055785Y0107496D01*
X0055754Y0107534D01*
X0055720Y0107570D01*
X0055683Y0107603D01*
X0055644Y0107633D01*
X0055602Y0107660D01*
X0055559Y0107683D01*
X0055514Y0107703D01*
X0055467Y0107720D01*
X0055420Y0107733D01*
X0055371Y0107742D01*
X0055322Y0107748D01*
X0055273Y0107750D01*
X0054306Y0107750D01*
X0051662Y0107750D02*
X0050696Y0106381D01*
X0050696Y0104850D01*
X0050696Y0106381D02*
X0049729Y0107750D01*
X0047508Y0106542D02*
X0047468Y0106568D01*
X0047429Y0106597D01*
X0047392Y0106629D01*
X0047358Y0106664D01*
X0047327Y0106701D01*
X0047298Y0106740D01*
X0047272Y0106781D01*
X0047250Y0106824D01*
X0047231Y0106869D01*
X0047215Y0106915D01*
X0047202Y0106961D01*
X0047193Y0107009D01*
X0047188Y0107057D01*
X0047186Y0107106D01*
X0047187Y0107106D02*
X0047189Y0107154D01*
X0047194Y0107202D01*
X0047203Y0107249D01*
X0047216Y0107296D01*
X0047232Y0107341D01*
X0047251Y0107385D01*
X0047273Y0107428D01*
X0047299Y0107469D01*
X0047328Y0107508D01*
X0047359Y0107544D01*
X0047393Y0107578D01*
X0047429Y0107610D01*
X0047468Y0107638D01*
X0047509Y0107664D01*
X0047552Y0107686D01*
X0047596Y0107705D01*
X0047641Y0107721D01*
X0047688Y0107734D01*
X0047735Y0107743D01*
X0047783Y0107748D01*
X0047831Y0107750D01*
X0047896Y0107748D01*
X0047960Y0107743D01*
X0048025Y0107734D01*
X0048088Y0107722D01*
X0048151Y0107707D01*
X0048213Y0107688D01*
X0048274Y0107666D01*
X0048333Y0107641D01*
X0048392Y0107612D01*
X0048448Y0107580D01*
X0048503Y0107546D01*
X0048556Y0107508D01*
X0047107Y0105253D02*
X0047158Y0105203D01*
X0047213Y0105156D01*
X0047269Y0105113D01*
X0047328Y0105072D01*
X0047389Y0105034D01*
X0047452Y0105000D01*
X0047517Y0104969D01*
X0047583Y0104941D01*
X0047650Y0104917D01*
X0047719Y0104897D01*
X0047789Y0104880D01*
X0047859Y0104867D01*
X0047930Y0104858D01*
X0048001Y0104852D01*
X0048073Y0104850D01*
X0048121Y0104852D01*
X0048169Y0104857D01*
X0048216Y0104866D01*
X0048263Y0104879D01*
X0048308Y0104895D01*
X0048352Y0104914D01*
X0048395Y0104936D01*
X0048436Y0104962D01*
X0048475Y0104991D01*
X0048511Y0105022D01*
X0048545Y0105056D01*
X0048576Y0105092D01*
X0048605Y0105131D01*
X0048631Y0105172D01*
X0048653Y0105215D01*
X0048672Y0105259D01*
X0048688Y0105304D01*
X0048701Y0105351D01*
X0048710Y0105398D01*
X0048715Y0105446D01*
X0048717Y0105494D01*
X0048395Y0106058D02*
X0047509Y0106542D01*
X0048396Y0106058D02*
X0048436Y0106032D01*
X0048475Y0106003D01*
X0048512Y0105971D01*
X0048546Y0105936D01*
X0048577Y0105899D01*
X0048606Y0105860D01*
X0048632Y0105819D01*
X0048654Y0105776D01*
X0048673Y0105731D01*
X0048689Y0105685D01*
X0048702Y0105639D01*
X0048711Y0105591D01*
X0048716Y0105543D01*
X0048718Y0105494D01*
X0045837Y0104850D02*
X0045837Y0107750D01*
X0044226Y0107750D02*
X0044226Y0104850D01*
X0043025Y0104850D02*
X0041736Y0104850D01*
X0041736Y0107750D01*
X0043025Y0107750D01*
X0044226Y0107750D02*
X0045837Y0104850D01*
X0042703Y0106461D02*
X0041736Y0106461D01*
X0040207Y0106461D02*
X0039240Y0106461D01*
X0039240Y0107750D02*
X0040529Y0107750D01*
X0039240Y0107750D02*
X0039240Y0104850D01*
X0040529Y0104850D01*
X0037256Y0104850D02*
X0037256Y0107750D01*
X0038061Y0107750D02*
X0036450Y0107750D01*
X0108498Y0139478D02*
X0110431Y0139478D01*
X0109465Y0138511D02*
X0109465Y0140444D01*
X0111731Y0141250D02*
X0112698Y0141250D01*
X0112747Y0141248D01*
X0112796Y0141242D01*
X0112845Y0141233D01*
X0112892Y0141220D01*
X0112939Y0141203D01*
X0112984Y0141183D01*
X0113027Y0141160D01*
X0113069Y0141133D01*
X0113108Y0141103D01*
X0113145Y0141070D01*
X0113179Y0141034D01*
X0113210Y0140996D01*
X0113239Y0140956D01*
X0113264Y0140914D01*
X0113286Y0140869D01*
X0113304Y0140824D01*
X0113319Y0140777D01*
X0113330Y0140729D01*
X0113338Y0140680D01*
X0113342Y0140631D01*
X0113342Y0140581D01*
X0113338Y0140532D01*
X0113330Y0140483D01*
X0113319Y0140435D01*
X0113304Y0140388D01*
X0113286Y0140343D01*
X0113264Y0140298D01*
X0113239Y0140256D01*
X0113210Y0140216D01*
X0113179Y0140178D01*
X0113145Y0140142D01*
X0113108Y0140109D01*
X0113069Y0140079D01*
X0113027Y0140052D01*
X0112984Y0140029D01*
X0112939Y0140009D01*
X0112892Y0139992D01*
X0112845Y0139979D01*
X0112796Y0139970D01*
X0112747Y0139964D01*
X0112698Y0139962D01*
X0112698Y0139961D02*
X0112053Y0139961D01*
X0112537Y0139962D02*
X0112592Y0139960D01*
X0112647Y0139954D01*
X0112701Y0139945D01*
X0112754Y0139932D01*
X0112807Y0139915D01*
X0112858Y0139895D01*
X0112908Y0139872D01*
X0112956Y0139845D01*
X0113002Y0139814D01*
X0113046Y0139781D01*
X0113087Y0139745D01*
X0113126Y0139706D01*
X0113162Y0139665D01*
X0113195Y0139621D01*
X0113226Y0139575D01*
X0113253Y0139527D01*
X0113276Y0139477D01*
X0113296Y0139426D01*
X0113313Y0139373D01*
X0113326Y0139320D01*
X0113335Y0139266D01*
X0113341Y0139211D01*
X0113343Y0139156D01*
X0113341Y0139101D01*
X0113335Y0139046D01*
X0113326Y0138992D01*
X0113313Y0138939D01*
X0113296Y0138886D01*
X0113276Y0138835D01*
X0113253Y0138785D01*
X0113226Y0138737D01*
X0113195Y0138691D01*
X0113162Y0138647D01*
X0113126Y0138606D01*
X0113087Y0138567D01*
X0113046Y0138531D01*
X0113002Y0138498D01*
X0112956Y0138467D01*
X0112908Y0138440D01*
X0112858Y0138417D01*
X0112807Y0138397D01*
X0112754Y0138380D01*
X0112701Y0138367D01*
X0112647Y0138358D01*
X0112592Y0138352D01*
X0112537Y0138350D01*
X0111731Y0138350D01*
X0115417Y0138350D02*
X0116383Y0141250D01*
X0117491Y0141250D02*
X0118458Y0141250D01*
X0118507Y0141248D01*
X0118556Y0141242D01*
X0118605Y0141233D01*
X0118652Y0141220D01*
X0118699Y0141203D01*
X0118744Y0141183D01*
X0118787Y0141160D01*
X0118829Y0141133D01*
X0118868Y0141103D01*
X0118905Y0141070D01*
X0118939Y0141034D01*
X0118970Y0140996D01*
X0118999Y0140956D01*
X0119024Y0140914D01*
X0119046Y0140869D01*
X0119064Y0140824D01*
X0119079Y0140777D01*
X0119090Y0140729D01*
X0119098Y0140680D01*
X0119102Y0140631D01*
X0119102Y0140581D01*
X0119098Y0140532D01*
X0119090Y0140483D01*
X0119079Y0140435D01*
X0119064Y0140388D01*
X0119046Y0140343D01*
X0119024Y0140298D01*
X0118999Y0140256D01*
X0118970Y0140216D01*
X0118939Y0140178D01*
X0118905Y0140142D01*
X0118868Y0140109D01*
X0118829Y0140079D01*
X0118787Y0140052D01*
X0118744Y0140029D01*
X0118699Y0140009D01*
X0118652Y0139992D01*
X0118605Y0139979D01*
X0118556Y0139970D01*
X0118507Y0139964D01*
X0118458Y0139962D01*
X0118458Y0139961D02*
X0117813Y0139961D01*
X0118297Y0139962D02*
X0118352Y0139960D01*
X0118407Y0139954D01*
X0118461Y0139945D01*
X0118514Y0139932D01*
X0118567Y0139915D01*
X0118618Y0139895D01*
X0118668Y0139872D01*
X0118716Y0139845D01*
X0118762Y0139814D01*
X0118806Y0139781D01*
X0118847Y0139745D01*
X0118886Y0139706D01*
X0118922Y0139665D01*
X0118955Y0139621D01*
X0118986Y0139575D01*
X0119013Y0139527D01*
X0119036Y0139477D01*
X0119056Y0139426D01*
X0119073Y0139373D01*
X0119086Y0139320D01*
X0119095Y0139266D01*
X0119101Y0139211D01*
X0119103Y0139156D01*
X0119101Y0139101D01*
X0119095Y0139046D01*
X0119086Y0138992D01*
X0119073Y0138939D01*
X0119056Y0138886D01*
X0119036Y0138835D01*
X0119013Y0138785D01*
X0118986Y0138737D01*
X0118955Y0138691D01*
X0118922Y0138647D01*
X0118886Y0138606D01*
X0118847Y0138567D01*
X0118806Y0138531D01*
X0118762Y0138498D01*
X0118716Y0138467D01*
X0118668Y0138440D01*
X0118618Y0138417D01*
X0118567Y0138397D01*
X0118514Y0138380D01*
X0118461Y0138367D01*
X0118407Y0138358D01*
X0118352Y0138352D01*
X0118297Y0138350D01*
X0117491Y0138350D01*
X0115417Y0138350D02*
X0114450Y0141250D01*
X0150917Y0139478D02*
X0152851Y0139478D01*
X0151884Y0140444D02*
X0151884Y0138511D01*
X0154150Y0138350D02*
X0155762Y0138350D01*
X0154956Y0138350D02*
X0154956Y0141250D01*
X0154150Y0140606D01*
X0157030Y0138350D02*
X0158642Y0138350D01*
X0157030Y0138350D02*
X0158400Y0139961D01*
X0157917Y0141250D02*
X0157858Y0141248D01*
X0157800Y0141243D01*
X0157742Y0141233D01*
X0157685Y0141221D01*
X0157629Y0141204D01*
X0157574Y0141185D01*
X0157520Y0141161D01*
X0157468Y0141135D01*
X0157418Y0141105D01*
X0157369Y0141072D01*
X0157323Y0141036D01*
X0157279Y0140997D01*
X0157238Y0140956D01*
X0157199Y0140912D01*
X0157163Y0140866D01*
X0157131Y0140817D01*
X0157101Y0140767D01*
X0157074Y0140715D01*
X0157051Y0140661D01*
X0157031Y0140606D01*
X0158400Y0139961D02*
X0158437Y0139998D01*
X0158471Y0140038D01*
X0158503Y0140080D01*
X0158531Y0140125D01*
X0158557Y0140171D01*
X0158579Y0140218D01*
X0158598Y0140267D01*
X0158614Y0140317D01*
X0158626Y0140368D01*
X0158635Y0140420D01*
X0158640Y0140472D01*
X0158642Y0140525D01*
X0158640Y0140577D01*
X0158635Y0140628D01*
X0158625Y0140679D01*
X0158613Y0140729D01*
X0158596Y0140778D01*
X0158576Y0140826D01*
X0158553Y0140872D01*
X0158527Y0140917D01*
X0158497Y0140959D01*
X0158465Y0141000D01*
X0158430Y0141038D01*
X0158392Y0141073D01*
X0158351Y0141105D01*
X0158309Y0141135D01*
X0158264Y0141161D01*
X0158218Y0141184D01*
X0158170Y0141204D01*
X0158121Y0141221D01*
X0158071Y0141233D01*
X0158020Y0141243D01*
X0157969Y0141248D01*
X0157917Y0141250D01*
X0159749Y0141250D02*
X0160716Y0138350D01*
X0161683Y0141250D01*
X0174213Y0141250D02*
X0175180Y0139639D01*
X0176147Y0141250D01*
X0176147Y0138350D01*
X0177542Y0138350D02*
X0179154Y0138350D01*
X0178348Y0138350D02*
X0178348Y0141250D01*
X0177542Y0140606D01*
X0180453Y0139478D02*
X0182387Y0139478D01*
X0187713Y0138350D02*
X0187713Y0141250D01*
X0188680Y0139639D01*
X0189647Y0141250D01*
X0189647Y0138350D01*
X0191042Y0138350D02*
X0192654Y0138350D01*
X0191848Y0138350D02*
X0191848Y0141250D01*
X0191042Y0140606D01*
X0193953Y0139478D02*
X0195887Y0139478D01*
X0194920Y0140444D02*
X0194920Y0138511D01*
X0213713Y0138350D02*
X0213713Y0141250D01*
X0214680Y0139639D01*
X0215647Y0141250D01*
X0215647Y0138350D01*
X0217042Y0138350D02*
X0218654Y0138350D01*
X0217042Y0138350D02*
X0218412Y0139961D01*
X0217929Y0141250D02*
X0217870Y0141248D01*
X0217812Y0141243D01*
X0217754Y0141233D01*
X0217697Y0141221D01*
X0217641Y0141204D01*
X0217586Y0141185D01*
X0217532Y0141161D01*
X0217480Y0141135D01*
X0217430Y0141105D01*
X0217381Y0141072D01*
X0217335Y0141036D01*
X0217291Y0140997D01*
X0217250Y0140956D01*
X0217211Y0140912D01*
X0217175Y0140866D01*
X0217143Y0140817D01*
X0217113Y0140767D01*
X0217086Y0140715D01*
X0217063Y0140661D01*
X0217043Y0140606D01*
X0218412Y0139961D02*
X0218449Y0139998D01*
X0218483Y0140038D01*
X0218515Y0140080D01*
X0218543Y0140125D01*
X0218569Y0140171D01*
X0218591Y0140218D01*
X0218610Y0140267D01*
X0218626Y0140317D01*
X0218638Y0140368D01*
X0218647Y0140420D01*
X0218652Y0140472D01*
X0218654Y0140525D01*
X0218652Y0140577D01*
X0218647Y0140628D01*
X0218637Y0140679D01*
X0218625Y0140729D01*
X0218608Y0140778D01*
X0218588Y0140826D01*
X0218565Y0140872D01*
X0218539Y0140917D01*
X0218509Y0140959D01*
X0218477Y0141000D01*
X0218442Y0141038D01*
X0218404Y0141073D01*
X0218363Y0141105D01*
X0218321Y0141135D01*
X0218276Y0141161D01*
X0218230Y0141184D01*
X0218182Y0141204D01*
X0218133Y0141221D01*
X0218083Y0141233D01*
X0218032Y0141243D01*
X0217981Y0141248D01*
X0217929Y0141250D01*
X0219953Y0139478D02*
X0221887Y0139478D01*
X0227713Y0138350D02*
X0227713Y0141250D01*
X0228680Y0139639D01*
X0229647Y0141250D01*
X0229647Y0138350D01*
X0231042Y0138350D02*
X0232654Y0138350D01*
X0231042Y0138350D02*
X0232412Y0139961D01*
X0231929Y0141250D02*
X0231870Y0141248D01*
X0231812Y0141243D01*
X0231754Y0141233D01*
X0231697Y0141221D01*
X0231641Y0141204D01*
X0231586Y0141185D01*
X0231532Y0141161D01*
X0231480Y0141135D01*
X0231430Y0141105D01*
X0231381Y0141072D01*
X0231335Y0141036D01*
X0231291Y0140997D01*
X0231250Y0140956D01*
X0231211Y0140912D01*
X0231175Y0140866D01*
X0231143Y0140817D01*
X0231113Y0140767D01*
X0231086Y0140715D01*
X0231063Y0140661D01*
X0231043Y0140606D01*
X0232412Y0139961D02*
X0232449Y0139998D01*
X0232483Y0140038D01*
X0232515Y0140080D01*
X0232543Y0140125D01*
X0232569Y0140171D01*
X0232591Y0140218D01*
X0232610Y0140267D01*
X0232626Y0140317D01*
X0232638Y0140368D01*
X0232647Y0140420D01*
X0232652Y0140472D01*
X0232654Y0140525D01*
X0232652Y0140577D01*
X0232647Y0140628D01*
X0232637Y0140679D01*
X0232625Y0140729D01*
X0232608Y0140778D01*
X0232588Y0140826D01*
X0232565Y0140872D01*
X0232539Y0140917D01*
X0232509Y0140959D01*
X0232477Y0141000D01*
X0232442Y0141038D01*
X0232404Y0141073D01*
X0232363Y0141105D01*
X0232321Y0141135D01*
X0232276Y0141161D01*
X0232230Y0141184D01*
X0232182Y0141204D01*
X0232133Y0141221D01*
X0232083Y0141233D01*
X0232032Y0141243D01*
X0231981Y0141248D01*
X0231929Y0141250D01*
X0233953Y0139478D02*
X0235887Y0139478D01*
X0234920Y0140444D02*
X0234920Y0138511D01*
X0174213Y0138350D02*
X0174213Y0141250D01*
D11*
X0118360Y0101133D02*
X0117360Y0101133D01*
X0116741Y0100550D02*
X0115907Y0100550D01*
X0116324Y0100550D02*
X0116324Y0102050D01*
X0115907Y0101717D01*
X0115240Y0102050D02*
X0115240Y0100550D01*
X0114740Y0101217D02*
X0114240Y0102050D01*
X0114240Y0100550D01*
X0114740Y0101217D02*
X0115240Y0102050D01*
X0098360Y0096133D02*
X0097360Y0096133D01*
X0097860Y0095633D02*
X0097860Y0096633D01*
X0096741Y0095550D02*
X0095907Y0095550D01*
X0096324Y0095550D02*
X0096324Y0097050D01*
X0095907Y0096717D01*
X0095240Y0097050D02*
X0095240Y0095550D01*
X0094740Y0096217D02*
X0095240Y0097050D01*
X0094740Y0096217D02*
X0094240Y0097050D01*
X0094240Y0095550D01*
X0094240Y0047050D02*
X0094740Y0046217D01*
X0095240Y0047050D01*
X0095240Y0045550D01*
X0095907Y0045550D02*
X0096616Y0046383D01*
X0096366Y0047050D02*
X0096326Y0047048D01*
X0096286Y0047043D01*
X0096246Y0047035D01*
X0096207Y0047023D01*
X0096170Y0047008D01*
X0096134Y0046990D01*
X0096099Y0046969D01*
X0096066Y0046946D01*
X0096036Y0046919D01*
X0096008Y0046890D01*
X0095982Y0046859D01*
X0095959Y0046826D01*
X0095939Y0046791D01*
X0095921Y0046754D01*
X0095907Y0046716D01*
X0096616Y0046383D02*
X0096641Y0046409D01*
X0096664Y0046438D01*
X0096684Y0046468D01*
X0096701Y0046500D01*
X0096715Y0046533D01*
X0096726Y0046568D01*
X0096734Y0046603D01*
X0096739Y0046639D01*
X0096741Y0046675D01*
X0096739Y0046712D01*
X0096734Y0046748D01*
X0096725Y0046784D01*
X0096712Y0046819D01*
X0096697Y0046852D01*
X0096678Y0046883D01*
X0096656Y0046913D01*
X0096631Y0046940D01*
X0096604Y0046965D01*
X0096574Y0046987D01*
X0096543Y0047006D01*
X0096510Y0047021D01*
X0096475Y0047034D01*
X0096439Y0047043D01*
X0096403Y0047048D01*
X0096366Y0047050D01*
X0097360Y0046133D02*
X0098360Y0046133D01*
X0096741Y0045550D02*
X0095907Y0045550D01*
X0094240Y0045550D02*
X0094240Y0047050D01*
X0132240Y0037050D02*
X0132740Y0036217D01*
X0133240Y0037050D01*
X0133240Y0035550D01*
X0133907Y0035550D02*
X0134741Y0035550D01*
X0133907Y0035550D02*
X0134616Y0036383D01*
X0134366Y0037050D02*
X0134326Y0037048D01*
X0134286Y0037043D01*
X0134246Y0037035D01*
X0134207Y0037023D01*
X0134170Y0037008D01*
X0134134Y0036990D01*
X0134099Y0036969D01*
X0134066Y0036946D01*
X0134036Y0036919D01*
X0134008Y0036890D01*
X0133982Y0036859D01*
X0133959Y0036826D01*
X0133939Y0036791D01*
X0133921Y0036754D01*
X0133907Y0036716D01*
X0134616Y0036383D02*
X0134641Y0036409D01*
X0134664Y0036438D01*
X0134684Y0036468D01*
X0134701Y0036500D01*
X0134715Y0036533D01*
X0134726Y0036568D01*
X0134734Y0036603D01*
X0134739Y0036639D01*
X0134741Y0036675D01*
X0134739Y0036712D01*
X0134734Y0036748D01*
X0134725Y0036784D01*
X0134712Y0036819D01*
X0134697Y0036852D01*
X0134678Y0036883D01*
X0134656Y0036913D01*
X0134631Y0036940D01*
X0134604Y0036965D01*
X0134574Y0036987D01*
X0134543Y0037006D01*
X0134510Y0037021D01*
X0134475Y0037034D01*
X0134439Y0037043D01*
X0134403Y0037048D01*
X0134366Y0037050D01*
X0135360Y0036133D02*
X0136360Y0036133D01*
X0135860Y0035633D02*
X0135860Y0036633D01*
X0132240Y0037050D02*
X0132240Y0035550D01*
D12*
X0137300Y0034300D02*
X0123300Y0034300D01*
X0123300Y0035300D01*
X0166300Y0039300D02*
X0166300Y0023300D01*
X0176300Y0023300D01*
X0176300Y0039300D01*
X0166300Y0039300D01*
X0171300Y0033800D02*
X0171300Y0031300D01*
X0168800Y0031300D01*
X0171300Y0031300D02*
X0173800Y0031300D01*
X0171300Y0031300D02*
X0173800Y0027300D01*
X0168800Y0027300D01*
X0171300Y0031300D01*
X0171300Y0025300D01*
X0191300Y0023300D02*
X0201300Y0023300D01*
X0201300Y0039300D01*
X0191300Y0039300D01*
X0191300Y0023300D01*
X0193800Y0027300D02*
X0196300Y0031300D01*
X0193800Y0031300D01*
X0196300Y0031300D02*
X0198800Y0031300D01*
X0196300Y0031300D02*
X0198800Y0027300D01*
X0193800Y0027300D01*
X0196300Y0025300D02*
X0196300Y0031300D01*
X0196300Y0033800D01*
X0216300Y0039300D02*
X0216300Y0023300D01*
X0226300Y0023300D01*
X0226300Y0039300D01*
X0216300Y0039300D01*
X0221300Y0033800D02*
X0221300Y0031300D01*
X0218800Y0031300D01*
X0221300Y0031300D02*
X0223800Y0031300D01*
X0221300Y0031300D02*
X0223800Y0027300D01*
X0218800Y0027300D01*
X0221300Y0031300D01*
X0221300Y0025300D01*
X0241300Y0023300D02*
X0251300Y0023300D01*
X0251300Y0039300D01*
X0241300Y0039300D01*
X0241300Y0023300D01*
X0243800Y0027300D02*
X0246300Y0031300D01*
X0243800Y0031300D01*
X0246300Y0031300D02*
X0248800Y0031300D01*
X0246300Y0031300D02*
X0248800Y0027300D01*
X0243800Y0027300D01*
X0246300Y0025300D02*
X0246300Y0031300D01*
X0246300Y0033800D01*
X0241300Y0063300D02*
X0231300Y0063300D01*
X0231300Y0079300D01*
X0241300Y0079300D01*
X0241300Y0063300D01*
X0238800Y0067300D02*
X0236300Y0071300D01*
X0233800Y0071300D01*
X0236300Y0071300D02*
X0236300Y0073800D01*
X0236300Y0071300D02*
X0238800Y0071300D01*
X0236300Y0071300D02*
X0236300Y0065300D01*
X0233800Y0067300D02*
X0236300Y0071300D01*
X0238800Y0067300D02*
X0233800Y0067300D01*
X0216300Y0063300D02*
X0216300Y0079300D01*
X0206300Y0079300D01*
X0206300Y0063300D01*
X0216300Y0063300D01*
X0213800Y0067300D02*
X0211300Y0071300D01*
X0208800Y0071300D01*
X0211300Y0071300D02*
X0211300Y0073800D01*
X0211300Y0071300D02*
X0213800Y0071300D01*
X0211300Y0071300D02*
X0211300Y0065300D01*
X0208800Y0067300D02*
X0211300Y0071300D01*
X0213800Y0067300D02*
X0208800Y0067300D01*
X0191300Y0063300D02*
X0191300Y0079300D01*
X0181300Y0079300D01*
X0181300Y0063300D01*
X0191300Y0063300D01*
X0186300Y0065300D02*
X0186300Y0071300D01*
X0183800Y0071300D01*
X0186300Y0071300D02*
X0186300Y0073800D01*
X0186300Y0071300D02*
X0188800Y0071300D01*
X0186300Y0071300D02*
X0188800Y0067300D01*
X0183800Y0067300D01*
X0186300Y0071300D01*
X0166300Y0079300D02*
X0166300Y0063300D01*
X0156300Y0063300D01*
X0156300Y0079300D01*
X0166300Y0079300D01*
X0161300Y0073800D02*
X0161300Y0071300D01*
X0158800Y0071300D01*
X0161300Y0071300D02*
X0163800Y0071300D01*
X0161300Y0071300D02*
X0163800Y0067300D01*
X0158800Y0067300D01*
X0161300Y0071300D01*
X0161300Y0065300D01*
X0123300Y0107300D02*
X0123300Y0108300D01*
X0137300Y0108300D01*
D13*
X0136100Y0103291D02*
X0136100Y0100735D01*
X0133544Y0102908D01*
X0131500Y0102141D02*
X0131502Y0102067D01*
X0131507Y0101993D01*
X0131517Y0101919D01*
X0131530Y0101846D01*
X0131546Y0101773D01*
X0131567Y0101702D01*
X0131591Y0101632D01*
X0131618Y0101563D01*
X0131649Y0101495D01*
X0131683Y0101429D01*
X0131720Y0101365D01*
X0131761Y0101303D01*
X0131805Y0101242D01*
X0131851Y0101185D01*
X0131901Y0101129D01*
X0131953Y0101076D01*
X0132008Y0101026D01*
X0132065Y0100979D01*
X0132125Y0100935D01*
X0132187Y0100893D01*
X0132250Y0100855D01*
X0132316Y0100820D01*
X0132383Y0100789D01*
X0132452Y0100761D01*
X0132522Y0100736D01*
X0133544Y0102908D02*
X0133497Y0102955D01*
X0133447Y0102999D01*
X0133395Y0103041D01*
X0133341Y0103080D01*
X0133285Y0103115D01*
X0133227Y0103148D01*
X0133167Y0103178D01*
X0133106Y0103204D01*
X0133043Y0103227D01*
X0132979Y0103246D01*
X0132915Y0103262D01*
X0132849Y0103275D01*
X0132783Y0103284D01*
X0132717Y0103289D01*
X0132650Y0103291D01*
X0132583Y0103289D01*
X0132516Y0103283D01*
X0132450Y0103274D01*
X0132385Y0103260D01*
X0132320Y0103243D01*
X0132257Y0103222D01*
X0132195Y0103197D01*
X0132134Y0103169D01*
X0132075Y0103137D01*
X0132018Y0103102D01*
X0131963Y0103063D01*
X0131911Y0103022D01*
X0131861Y0102977D01*
X0131814Y0102930D01*
X0131769Y0102880D01*
X0131728Y0102828D01*
X0131689Y0102773D01*
X0131654Y0102716D01*
X0131622Y0102657D01*
X0131594Y0102596D01*
X0131569Y0102534D01*
X0131548Y0102471D01*
X0131531Y0102406D01*
X0131517Y0102341D01*
X0131508Y0102275D01*
X0131502Y0102208D01*
X0131500Y0102141D01*
X0100398Y0105266D02*
X0100398Y0107822D01*
X0100398Y0106544D02*
X0095798Y0106544D01*
X0096820Y0105266D01*
X0135078Y0044846D02*
X0135078Y0042291D01*
X0131500Y0043313D01*
X0134056Y0044079D02*
X0136100Y0044079D01*
X0136100Y0040346D02*
X0136100Y0037791D01*
X0136100Y0039068D02*
X0131500Y0039068D01*
X0132522Y0037791D01*
X0100631Y0038355D02*
X0100631Y0036822D01*
X0100631Y0038355D02*
X0100629Y0038417D01*
X0100624Y0038478D01*
X0100614Y0038539D01*
X0100601Y0038600D01*
X0100585Y0038659D01*
X0100565Y0038717D01*
X0100541Y0038774D01*
X0100514Y0038830D01*
X0100484Y0038884D01*
X0100450Y0038936D01*
X0100414Y0038985D01*
X0100374Y0039033D01*
X0100332Y0039078D01*
X0100287Y0039120D01*
X0100239Y0039160D01*
X0100190Y0039196D01*
X0100138Y0039230D01*
X0100084Y0039260D01*
X0100028Y0039287D01*
X0099971Y0039311D01*
X0099913Y0039331D01*
X0099854Y0039347D01*
X0099793Y0039360D01*
X0099732Y0039370D01*
X0099671Y0039375D01*
X0099609Y0039377D01*
X0099098Y0039377D01*
X0099036Y0039375D01*
X0098975Y0039370D01*
X0098914Y0039360D01*
X0098853Y0039347D01*
X0098794Y0039331D01*
X0098736Y0039311D01*
X0098679Y0039287D01*
X0098623Y0039260D01*
X0098569Y0039230D01*
X0098517Y0039196D01*
X0098468Y0039160D01*
X0098420Y0039120D01*
X0098375Y0039078D01*
X0098333Y0039033D01*
X0098293Y0038985D01*
X0098257Y0038936D01*
X0098223Y0038884D01*
X0098193Y0038830D01*
X0098166Y0038774D01*
X0098142Y0038717D01*
X0098122Y0038659D01*
X0098106Y0038600D01*
X0098093Y0038539D01*
X0098083Y0038478D01*
X0098078Y0038417D01*
X0098076Y0038355D01*
X0098076Y0036822D01*
X0096031Y0036822D01*
X0096031Y0039377D01*
X0100631Y0034877D02*
X0100631Y0032322D01*
X0100631Y0033599D02*
X0096031Y0033599D01*
X0097053Y0032322D01*
D14*
X0140286Y0071300D03*
D15*
X0013300Y0024300D02*
X0013300Y0164300D01*
X0043300Y0164300D01*
X0043300Y0159300D01*
X0053300Y0159300D01*
X0053300Y0164300D01*
X0083300Y0164300D01*
X0083300Y0024300D01*
X0013300Y0024300D01*
X0093631Y0143414D02*
X0093631Y0167824D01*
X0121190Y0167824D01*
X0121190Y0143414D01*
X0093631Y0143414D01*
X0093631Y0167824D02*
X0093631Y0170973D01*
X0121190Y0170973D01*
X0121190Y0167824D01*
X0135631Y0167824D02*
X0163190Y0167824D01*
X0163190Y0143414D01*
X0135631Y0143414D01*
X0135631Y0167824D01*
X0135631Y0170973D01*
X0163190Y0170973D01*
X0163190Y0167824D01*
X0171131Y0167824D02*
X0198690Y0167824D01*
X0198690Y0143414D01*
X0171131Y0143414D01*
X0171131Y0167824D01*
X0171131Y0170973D01*
X0198690Y0170973D01*
X0198690Y0167824D01*
X0210631Y0167824D02*
X0238190Y0167824D01*
X0238190Y0143414D01*
X0210631Y0143414D01*
X0210631Y0167824D01*
X0210631Y0170973D01*
X0238190Y0170973D01*
X0238190Y0167824D01*
D16*
X0136800Y0126300D02*
X0136800Y0116300D01*
X0115800Y0116300D01*
X0115800Y0126300D01*
X0136800Y0126300D01*
X0126300Y0123800D02*
X0126300Y0118800D01*
D17*
X0161300Y0076800D03*
X0186300Y0076800D03*
X0211300Y0076800D03*
X0236300Y0076800D03*
X0246300Y0036800D03*
X0221300Y0036800D03*
X0196300Y0036800D03*
X0171300Y0036800D03*
D18*
X0171300Y0043050D03*
X0161300Y0059550D03*
X0186300Y0059550D03*
X0196300Y0043050D03*
X0211300Y0059550D03*
X0221300Y0043050D03*
X0236300Y0059550D03*
X0246300Y0043050D03*
X0246300Y0019550D03*
X0221300Y0019550D03*
X0196300Y0019550D03*
X0171300Y0019550D03*
X0161300Y0083050D03*
X0186300Y0083050D03*
X0211300Y0083050D03*
X0236300Y0083050D03*
M02*
