%
M48
M72
T01C0.02165
T02C0.03800
T03C0.04000
T04C0.04400
T05C0.04724
%
T01
X151300Y101300
T02
X18300Y29300
X28300Y29300
X38300Y29300
X48300Y29300
X58300Y29300
X68300Y29300
X78300Y29300
X78300Y39300
X78300Y49300
X78300Y59300
X78300Y69300
X78300Y79300
X78300Y89300
X78300Y99300
X78300Y109300
X68300Y109300
X68300Y119300
X78300Y119300
X78300Y129300
X68300Y129300
X78300Y139300
X78300Y149300
X68300Y149300
X78300Y159300
X18300Y159300
X18300Y149300
X18300Y139300
X18300Y129300
X18300Y119300
X18300Y109300
X18300Y99300
X18300Y89300
X18300Y79300
X18300Y69300
X18300Y59300
X18300Y49300
X18300Y39300
T03
X95800Y121300
X106800Y121300
X120800Y121300
X131800Y121300
T04
X161300Y91300
X186300Y91300
X211300Y91300
X236300Y91300
X236300Y51300
X246300Y51300
X221300Y51300
X211300Y51300
X196300Y51300
X186300Y51300
X171300Y51300
X161300Y51300
X171300Y11300
X196300Y11300
X221300Y11300
X246300Y11300
T05
X126300Y41300
X126300Y51300
X126300Y61300
X126300Y71300
X126300Y81300
X126300Y91300
X126300Y101300
X106300Y96300
X106300Y106300
X106300Y86300
X106300Y76300
X106300Y66300
X106300Y56300
X106300Y46300
X106300Y36300
X100520Y156800
X114300Y156800
X142520Y156800
X156300Y156800
X178020Y156800
X191800Y156800
X217520Y156800
X231300Y156800
M30
