G75*
%MOIN*%
%OFA0B0*%
%FSLAX25Y25*%
%IPPOS*%
%LPD*%
%AMOC8*
5,1,8,0,0,1.08239X$1,22.5*
%
%ADD10C,0.00500*%
%ADD11C,0.07924*%
%ADD12R,0.08800X0.08800*%
%ADD13C,0.08800*%
%ADD14C,0.07000*%
%ADD15C,0.07600*%
%ADD16C,0.04965*%
D10*
X0093179Y0118622D02*
X0093743Y0118169D01*
X0094385Y0117835D01*
X0095079Y0117633D01*
X0095800Y0117570D01*
X0096525Y0117631D01*
X0097223Y0117833D01*
X0097869Y0118167D01*
X0098438Y0118621D01*
X0098907Y0119177D01*
X0099258Y0119814D01*
X0099478Y0120507D01*
X0099559Y0121230D01*
X0099510Y0121890D01*
X0099346Y0122531D01*
X0099074Y0123134D01*
X0098701Y0123680D01*
X0098239Y0124153D01*
X0097701Y0124539D01*
X0097105Y0124826D01*
X0096468Y0125005D01*
X0095810Y0125070D01*
X0095152Y0125003D01*
X0094515Y0124822D01*
X0093920Y0124534D01*
X0093383Y0124147D01*
X0092922Y0123672D01*
X0092551Y0123125D01*
X0092280Y0122521D01*
X0092118Y0121880D01*
X0092070Y0121220D01*
X0092148Y0120500D01*
X0092366Y0119810D01*
X0092714Y0119176D01*
X0093179Y0118622D01*
X0093393Y0118450D02*
X0098224Y0118450D01*
X0098714Y0118949D02*
X0092904Y0118949D01*
X0092565Y0119447D02*
X0099056Y0119447D01*
X0099300Y0119946D02*
X0092323Y0119946D01*
X0092166Y0120444D02*
X0099458Y0120444D01*
X0099527Y0120943D02*
X0092100Y0120943D01*
X0092086Y0121441D02*
X0099544Y0121441D01*
X0099497Y0121940D02*
X0092133Y0121940D01*
X0092259Y0122438D02*
X0099370Y0122438D01*
X0099163Y0122937D02*
X0092466Y0122937D01*
X0092761Y0123435D02*
X0098868Y0123435D01*
X0098453Y0123934D02*
X0093176Y0123934D01*
X0093779Y0124432D02*
X0097850Y0124432D01*
X0096731Y0124931D02*
X0094898Y0124931D01*
X0103300Y0122521D02*
X0103138Y0121880D01*
X0103090Y0121220D01*
X0103168Y0120500D01*
X0103386Y0119810D01*
X0103734Y0119176D01*
X0104199Y0118622D01*
X0104763Y0118169D01*
X0105405Y0117835D01*
X0106099Y0117633D01*
X0106820Y0117570D01*
X0107545Y0117631D01*
X0108244Y0117833D01*
X0108890Y0118167D01*
X0109458Y0118621D01*
X0109927Y0119177D01*
X0110278Y0119814D01*
X0110499Y0120507D01*
X0110580Y0121230D01*
X0110530Y0121890D01*
X0110366Y0122531D01*
X0110094Y0123134D01*
X0109721Y0123680D01*
X0109259Y0124153D01*
X0108721Y0124539D01*
X0108125Y0124826D01*
X0107488Y0125005D01*
X0106830Y0125070D01*
X0106172Y0125003D01*
X0105535Y0124822D01*
X0104940Y0124534D01*
X0104403Y0124147D01*
X0103942Y0123672D01*
X0103571Y0123125D01*
X0103300Y0122521D01*
X0103279Y0122438D02*
X0110390Y0122438D01*
X0110517Y0121940D02*
X0103153Y0121940D01*
X0103106Y0121441D02*
X0110564Y0121441D01*
X0110547Y0120943D02*
X0103120Y0120943D01*
X0103186Y0120444D02*
X0110479Y0120444D01*
X0110320Y0119946D02*
X0103343Y0119946D01*
X0103585Y0119447D02*
X0110076Y0119447D01*
X0109734Y0118949D02*
X0103925Y0118949D01*
X0104413Y0118450D02*
X0109244Y0118450D01*
X0108473Y0117952D02*
X0105181Y0117952D01*
X0103486Y0122937D02*
X0110183Y0122937D01*
X0109888Y0123435D02*
X0103781Y0123435D01*
X0104196Y0123934D02*
X0109473Y0123934D01*
X0108870Y0124432D02*
X0104799Y0124432D01*
X0105918Y0124931D02*
X0107751Y0124931D01*
X0119055Y0121640D02*
X0119178Y0122023D01*
X0119384Y0122369D01*
X0119661Y0122660D01*
X0119996Y0122882D01*
X0120372Y0123025D01*
X0120770Y0123080D01*
X0121163Y0123028D01*
X0121535Y0122891D01*
X0121867Y0122675D01*
X0122142Y0122390D01*
X0122348Y0122051D01*
X0122472Y0121674D01*
X0122510Y0121280D01*
X0122463Y0120896D01*
X0122333Y0120533D01*
X0122124Y0120208D01*
X0121849Y0119937D01*
X0121520Y0119734D01*
X0121154Y0119610D01*
X0120770Y0119570D01*
X0120389Y0119604D01*
X0120024Y0119722D01*
X0119695Y0119918D01*
X0119418Y0120182D01*
X0119207Y0120502D01*
X0119072Y0120860D01*
X0119020Y0121240D01*
X0119055Y0121640D01*
X0119038Y0121441D02*
X0122494Y0121441D01*
X0122469Y0120943D02*
X0119061Y0120943D01*
X0119245Y0120444D02*
X0122276Y0120444D01*
X0121858Y0119946D02*
X0119666Y0119946D01*
X0119152Y0121940D02*
X0122384Y0121940D01*
X0122096Y0122438D02*
X0119450Y0122438D01*
X0120140Y0122937D02*
X0121412Y0122937D01*
X0130075Y0121640D02*
X0130198Y0122023D01*
X0130404Y0122369D01*
X0130681Y0122660D01*
X0131016Y0122882D01*
X0131392Y0123025D01*
X0131790Y0123080D01*
X0132183Y0123028D01*
X0132555Y0122891D01*
X0132887Y0122675D01*
X0133162Y0122390D01*
X0133368Y0122051D01*
X0133492Y0121674D01*
X0133530Y0121280D01*
X0133483Y0120896D01*
X0133353Y0120533D01*
X0133144Y0120208D01*
X0132869Y0119937D01*
X0132540Y0119734D01*
X0132174Y0119610D01*
X0131790Y0119570D01*
X0131409Y0119604D01*
X0131044Y0119722D01*
X0130715Y0119918D01*
X0130438Y0120182D01*
X0130227Y0120502D01*
X0130092Y0120860D01*
X0130040Y0121240D01*
X0130075Y0121640D01*
X0130058Y0121441D02*
X0133514Y0121441D01*
X0133489Y0120943D02*
X0130081Y0120943D01*
X0130265Y0120444D02*
X0133296Y0120444D01*
X0132878Y0119946D02*
X0130686Y0119946D01*
X0130172Y0121940D02*
X0133404Y0121940D01*
X0133116Y0122438D02*
X0130470Y0122438D01*
X0131160Y0122937D02*
X0132432Y0122937D01*
X0097453Y0117952D02*
X0094161Y0117952D01*
D11*
X0102738Y0106300D02*
X0109862Y0106300D01*
X0109862Y0096300D02*
X0102738Y0096300D01*
X0102738Y0086300D02*
X0109862Y0086300D01*
X0109862Y0076300D02*
X0102738Y0076300D01*
X0102738Y0066300D02*
X0109862Y0066300D01*
X0122738Y0061300D02*
X0129862Y0061300D01*
X0129862Y0051300D02*
X0122738Y0051300D01*
X0122738Y0041300D02*
X0129862Y0041300D01*
X0109862Y0036300D02*
X0102738Y0036300D01*
X0102738Y0046300D02*
X0109862Y0046300D01*
X0109862Y0056300D02*
X0102738Y0056300D01*
X0122738Y0071300D02*
X0129862Y0071300D01*
X0129862Y0081300D02*
X0122738Y0081300D01*
X0122738Y0091300D02*
X0129862Y0091300D01*
X0129862Y0101300D02*
X0122738Y0101300D01*
D12*
X0114300Y0156800D03*
X0156300Y0156800D03*
X0191800Y0156800D03*
X0231300Y0156800D03*
D13*
X0217520Y0156800D03*
X0178020Y0156800D03*
X0142520Y0156800D03*
X0100520Y0156800D03*
D14*
X0018300Y0029300D03*
X0028300Y0029300D03*
X0038300Y0029300D03*
X0048300Y0029300D03*
X0058300Y0029300D03*
X0068300Y0029300D03*
X0078300Y0029300D03*
X0078300Y0039300D03*
X0078300Y0049300D03*
X0078300Y0059300D03*
X0078300Y0069300D03*
X0078300Y0079300D03*
X0078300Y0089300D03*
X0078300Y0099300D03*
X0078300Y0109300D03*
X0068300Y0109300D03*
X0068300Y0119300D03*
X0078300Y0119300D03*
X0078300Y0129300D03*
X0068300Y0129300D03*
X0078300Y0139300D03*
X0078300Y0149300D03*
X0068300Y0149300D03*
X0078300Y0159300D03*
X0018300Y0159300D03*
X0018300Y0149300D03*
X0018300Y0139300D03*
X0018300Y0129300D03*
X0018300Y0119300D03*
X0018300Y0109300D03*
X0018300Y0099300D03*
X0018300Y0089300D03*
X0018300Y0079300D03*
X0018300Y0069300D03*
X0018300Y0059300D03*
X0018300Y0049300D03*
X0018300Y0039300D03*
D15*
X0161300Y0051300D03*
X0171300Y0051300D03*
X0186300Y0051300D03*
X0196300Y0051300D03*
X0211300Y0051300D03*
X0221300Y0051300D03*
X0236300Y0051300D03*
X0246300Y0051300D03*
X0246300Y0011300D03*
X0221300Y0011300D03*
X0196300Y0011300D03*
X0171300Y0011300D03*
X0161300Y0091300D03*
X0186300Y0091300D03*
X0211300Y0091300D03*
X0236300Y0091300D03*
D16*
X0151300Y0101300D03*
M02*
